<svg width="34" height="29" viewBox="0 0 34 29" fill="none" xmlns="http://www.w3.org/2000/svg">
<path fill-rule="evenodd" clip-rule="evenodd" d="M16.6925 16.324C16.9472 16.324 17.1914 16.4251 17.3715 16.6052C17.5516 16.7853 17.6528 17.0296 17.6528 17.2843V27.8476C17.6528 28.1023 17.5516 28.3466 17.3715 28.5266C17.1914 28.7067 16.9472 28.8079 16.6925 28.8079C16.4378 28.8079 16.1935 28.7067 16.0134 28.5266C15.8334 28.3466 15.7322 28.1023 15.7322 27.8476V17.2843C15.7322 17.0296 15.8334 16.7853 16.0134 16.6052C16.1935 16.4251 16.4378 16.324 16.6925 16.324Z" fill="white"/>
<path fill-rule="evenodd" clip-rule="evenodd" d="M2.46079 7.95598C3.22903 10.3567 4.7271 12.7748 6.6189 14.173C8.81991 15.8017 10.8058 16.3279 12.4153 16.2223C13.1499 16.1817 13.8686 15.9924 14.5278 15.6659C15.1871 15.3394 15.7733 14.8825 16.2507 14.3228C17.0478 13.3875 17.2898 11.995 16.8634 10.3855C16.437 8.77992 15.3596 7.0533 13.6944 5.63589C12.0158 4.20504 9.54014 2.92207 7.24693 2.30364C6.10225 1.99634 5.05744 1.86766 4.20854 1.93872C3.35963 2.00979 2.81802 2.27291 2.51072 2.63206C2.18038 3.02002 1.94798 3.69416 1.92494 4.6679C1.90189 5.62437 2.08243 6.76521 2.46079 7.95598ZM0.0024114 4.62373C0.0312205 3.42335 0.317391 2.24602 1.04722 1.38943C1.8001 0.505952 2.90829 0.123751 4.04529 0.0258006C5.18805 -0.0702297 6.46909 0.108387 7.74437 0.452175C10.293 1.13783 13.028 2.54756 14.939 4.17431C16.8634 5.81451 18.179 7.86571 18.7168 9.89387C19.2546 11.9182 19.0318 14.0193 17.7104 15.5712C17.0665 16.3261 16.2765 16.9429 15.3879 17.3845C14.4994 17.8262 13.5307 18.0835 12.5401 18.141C10.389 18.2812 7.96524 17.5609 5.47614 15.721C3.17717 14.0155 1.48512 11.2114 0.63237 8.53792C0.204075 7.1935 -0.0263977 5.83755 0.0024114 4.61989" fill="white"/>
<path fill-rule="evenodd" clip-rule="evenodd" d="M31.1776 13.4911C30.2385 15.648 28.6789 17.7337 26.8332 18.7497C22.5753 21.0929 19.5772 19.3067 18.5401 17.6531C18.1041 16.9559 18.0081 15.6672 18.5593 14.1576C19.097 12.6883 20.1918 11.1825 21.8377 10.1512C23.5336 9.091 25.8998 8.35157 27.9952 8.13454C29.0419 8.02891 29.9677 8.05772 30.6764 8.21137C31.41 8.37078 31.75 8.62814 31.8767 8.8298C32.0285 9.0718 32.1456 9.62109 32.0381 10.5257C31.9344 11.39 31.6424 12.4252 31.1776 13.4911ZM33.9433 10.7542C34.0701 9.70944 34.0086 8.61661 33.5054 7.80996C32.9753 6.96489 32.0266 6.54044 31.0835 6.33494C30.1136 6.12367 28.9709 6.10446 27.7993 6.22546C25.46 6.46554 22.8019 7.28179 20.8198 8.52443C18.9543 9.68978 17.5258 11.4384 16.7558 13.4988C16.0971 15.3022 16.0375 17.2747 16.9114 18.671C18.4978 21.2043 22.6214 23.2593 27.759 20.4322C30.1098 19.1377 31.9036 16.6351 32.9388 14.2574C33.4632 13.0571 33.8146 11.8394 33.9452 10.7542" fill="white"/>
<path fill-rule="evenodd" clip-rule="evenodd" d="M14.9831 15.9649C13.7602 14.4324 12.3467 13.0622 10.777 11.8875L9.39413 10.8504C9.29324 10.7747 9.20825 10.6799 9.144 10.5714C9.07975 10.4629 9.0375 10.3428 9.01966 10.2179C9.00183 10.0931 9.00876 9.96596 9.04005 9.8438C9.07135 9.72164 9.12641 9.60683 9.20207 9.50595C9.27774 9.40506 9.37253 9.32006 9.48104 9.25581C9.58956 9.19156 9.70966 9.14931 9.83451 9.13148C9.95935 9.11364 10.0865 9.12057 10.2086 9.15187C10.3308 9.18317 10.4456 9.23822 10.5465 9.31389L11.9293 10.351C13.6233 11.6244 15.1559 13.1071 16.4812 14.7646C16.631 14.964 16.6974 15.214 16.6661 15.4615C16.6349 15.7091 16.5086 15.9347 16.3139 16.0908C16.1192 16.2468 15.8714 16.3209 15.623 16.2974C15.3746 16.2739 15.1451 16.1547 14.9831 15.9649ZM19.2929 19.4047C20.5182 18.1803 21.8776 17.098 23.3454 16.1781L24.8838 15.2178C24.9908 15.151 25.0835 15.0637 25.1567 14.9611C25.2299 14.8584 25.2822 14.7423 25.3106 14.6194C25.3389 14.4965 25.3428 14.3693 25.322 14.2449C25.3011 14.1205 25.256 14.0015 25.1892 13.8945C25.1224 13.7876 25.0351 13.6949 24.9324 13.6216C24.8298 13.5484 24.7137 13.4961 24.5908 13.4678C24.4679 13.4394 24.3406 13.4355 24.2163 13.4564C24.0919 13.4772 23.9728 13.5223 23.8659 13.5892L22.3294 14.5495C20.7379 15.5457 19.2638 16.7183 17.9351 18.045C17.7547 18.225 17.6533 18.4693 17.6532 18.7242C17.653 18.979 17.754 19.2235 17.9341 19.4038C18.1142 19.5841 18.3585 19.6855 18.6133 19.6857C18.8681 19.6859 19.1126 19.5848 19.2929 19.4047Z" fill="white"/>
</svg>
