<svg width="34" height="34" viewBox="0 0 34 34" fill="none" xmlns="http://www.w3.org/2000/svg">
<path d="M17.6264 1.92354C15.2597 1.92288 12.9289 2.50349 10.8391 3.61435C8.74923 4.72522 6.96418 6.33235 5.64078 8.29453C4.31737 10.2567 3.49612 12.5139 3.24918 14.8677C3.00225 17.2216 3.33718 19.6 4.22456 21.7941C4.27213 21.9114 4.29614 22.0369 4.2952 22.1635C4.29427 22.2901 4.26842 22.4152 4.21912 22.5318C4.16983 22.6483 4.09805 22.7541 4.0079 22.8429C3.91774 22.9317 3.81097 23.0019 3.69369 23.0495C3.5764 23.0971 3.45089 23.1211 3.32432 23.1202C3.19776 23.1192 3.07261 23.0934 2.95604 23.0441C2.83947 22.9948 2.73374 22.923 2.64491 22.8329C2.55607 22.7427 2.48586 22.6359 2.43829 22.5187C1.02231 19.0166 0.860328 15.1328 1.97979 11.525C3.09926 7.91726 5.43134 4.80733 8.58104 2.72199C11.7307 0.636658 15.5044 -0.295881 19.2629 0.0823285C23.0214 0.460538 26.5336 2.12625 29.2047 4.79731C31.8757 7.46838 33.5414 10.9806 33.9197 14.7391C34.2979 18.4976 33.3653 22.2712 31.28 25.4209C29.1947 28.5706 26.0847 30.9027 22.477 32.0222C18.8692 33.1417 14.9854 32.9797 11.4833 31.5637C11.2482 31.4667 11.0609 31.2806 10.9624 31.0461C10.8639 30.8115 10.8621 30.5475 10.9575 30.3117C11.0529 30.0759 11.2377 29.8873 11.4716 29.7872C11.7055 29.6872 11.9695 29.6836 12.2059 29.7774C14.182 30.5749 16.3099 30.9255 18.4373 30.8042C20.5647 30.6828 22.6389 30.0926 24.5115 29.0756C26.384 28.0587 28.0085 26.6403 29.2686 24.9219C30.5287 23.2036 31.3933 21.2278 31.8003 19.1362C32.2073 17.0446 32.1468 14.8888 31.6231 12.8233C31.0993 10.7578 30.1253 8.83372 28.7707 7.18879C27.4162 5.54385 25.7147 4.2188 23.788 3.30853C21.8614 2.39827 19.7573 1.92532 17.6264 1.92354Z" fill="white"/>
<path d="M7.0282 16.3757C7.0282 18.9559 7.94927 21.3202 9.48119 23.1585L8.55626 24.0834H5.62153C4.85521 24.0841 4.12052 24.3891 3.57898 24.9313L0.422656 28.0857C0.220797 28.2878 0.0833588 28.5452 0.0277004 28.8254C-0.027958 29.1055 0.000659652 29.3959 0.109939 29.6598C0.219218 29.9238 0.404257 30.1494 0.641686 30.3082C0.879115 30.467 1.15828 30.5519 1.44393 30.5522H3.44795V32.5562C3.4482 32.8418 3.53309 33.121 3.69191 33.3584C3.85073 33.5958 4.07635 33.7809 4.34027 33.8902C4.60419 33.9994 4.89457 34.0281 5.17475 33.9724C5.45492 33.9167 5.71232 33.7793 5.91443 33.5775L9.06882 30.4211C9.61127 29.8804 9.91691 29.1464 9.9186 28.3805V25.4477L10.8435 24.5228C12.6957 26.0655 15.0183 26.9307 17.4284 26.9757C19.8384 27.0208 22.1918 26.2429 24.1002 24.7705C26.0087 23.298 27.3582 21.219 27.9261 18.8764C28.4941 16.5338 28.2465 14.0676 27.2242 11.8847C26.2019 9.70175 24.466 7.93252 22.3029 6.86887C20.1398 5.80523 17.6788 5.51073 15.3258 6.03396C12.9728 6.55719 10.8685 7.8669 9.36005 9.74699C7.85156 11.6271 7.02905 13.9652 7.0282 16.3757ZM17.6264 7.70447C19.0114 7.70492 20.3761 8.03715 21.6064 8.67333C22.8367 9.30951 23.8967 10.2311 24.6976 11.3611C25.4986 12.491 26.0173 13.7964 26.2102 15.1679C26.4031 16.5394 26.2647 17.9372 25.8065 19.2442C25.3483 20.5513 24.5837 21.7295 23.5767 22.6804C22.5696 23.6313 21.3495 24.3271 20.0183 24.7096C18.6872 25.0922 17.2837 25.1502 15.9255 24.879C14.5673 24.6078 13.2938 24.0152 12.2117 23.1508L15.6667 19.6958C16.4747 20.1722 17.4287 20.3376 18.35 20.1609C19.2712 19.9843 20.0964 19.4777 20.6708 18.7361C21.2452 17.9945 21.5295 17.0689 21.4703 16.1328C21.4111 15.1966 21.0125 14.3142 20.3492 13.6509C19.6859 12.9876 18.8035 12.589 17.8673 12.5298C16.9312 12.4706 16.0056 12.7549 15.264 13.3293C14.5225 13.9038 14.0159 14.7289 13.8392 15.6502C13.6625 16.5714 13.8279 17.5254 14.3043 18.3335L10.8512 21.7885C9.8319 20.5127 9.19351 18.975 9.00957 17.3524C8.82563 15.7298 9.10361 14.0883 9.81151 12.6167C10.5194 11.1451 11.6285 9.90337 13.011 9.03433C14.3935 8.1653 15.9934 7.70432 17.6264 7.70447ZM4.94132 26.2917C5.03096 26.2023 5.13735 26.1314 5.25439 26.0831C5.37144 26.0349 5.49685 26.0101 5.62346 26.0104H7.99167V28.3786C7.9911 28.6339 7.88922 28.8785 7.70841 29.0588L5.37681 31.3904V29.5887C5.37681 29.3332 5.2753 29.0881 5.09462 28.9074C4.91393 28.7267 4.66887 28.6252 4.41334 28.6252H2.60973L4.94132 26.2917Z" fill="white"/>
</svg>
