<svg width="40" height="36" viewBox="0 0 40 36" fill="none" xmlns="http://www.w3.org/2000/svg">
<path d="M12.7104 1C13.6291 1 14.5388 1.18095 15.3875 1.53252C16.2363 1.88408 17.0075 2.39938 17.6571 3.04899C18.3067 3.6986 18.822 4.46979 19.1736 5.31855C19.5251 6.1673 19.7061 7.07699 19.7061 7.99568V27.0133C19.7034 28.0913 19.483 29.1577 19.0582 30.1485C18.6334 31.1392 18.0129 32.034 17.2339 32.7792C16.4549 33.5243 15.5334 34.1045 14.5248 34.4849C13.5161 34.8653 12.441 35.0381 11.3639 34.993C10.2869 34.9478 9.23004 34.6856 8.25676 34.2222C7.28348 33.7587 6.41381 33.1034 5.69991 32.2957C4.986 31.4879 4.44255 30.5444 4.10215 29.5215C3.76174 28.4987 3.63139 27.4176 3.71891 26.3432C2.05229 24.5502 1 21.0523 1 18.1277C1 14.1478 2.95467 10.2796 5.75295 8.75403C5.64639 7.77691 5.74695 6.7883 6.04805 5.85263C6.34916 4.91697 6.84406 4.05526 7.50049 3.32367C8.15692 2.59208 8.96016 2.00704 9.85784 1.60666C10.7555 1.20629 11.7275 0.999577 12.7104 1Z" stroke="white" stroke-width="1.87004" stroke-linecap="round" stroke-linejoin="round"/>
<path d="M9.45052 13.51C8.42174 13.2748 6.09671 11.7493 5.74693 8.77467M13.739 21.361C17.9365 20.8907 19.5972 16.464 19.7059 14.6622M5.86156 22.1458C4.81515 22.9688 3.98037 24.8412 3.71289 26.3403M26.7016 1.00006C24.8463 1.00006 23.0669 1.7371 21.7549 3.04905C20.443 4.36099 19.7059 6.14037 19.7059 7.99574V27.0134C19.7087 28.0914 19.929 29.1578 20.3538 30.1485C20.7787 31.1393 21.3992 32.0341 22.1782 32.7792C22.9572 33.5244 23.8786 34.1046 24.8873 34.485C25.8959 34.8654 26.971 35.0382 28.0481 34.993C29.1251 34.9479 30.182 34.6857 31.1553 34.2222C32.1286 33.7587 32.9982 33.1035 33.7121 32.2957C34.426 31.488 34.9695 30.5444 35.3099 29.5216C35.6503 28.4987 35.7806 27.4177 35.6931 26.3432C37.3597 24.5502 38.4091 21.0524 38.4091 18.1277C38.4091 14.1478 36.4574 10.2796 33.6562 8.75409C33.7627 7.77721 33.6622 6.78885 33.3613 5.85339C33.0603 4.91793 32.5657 4.05637 31.9096 3.32483C31.2535 2.59328 30.4506 2.00818 29.5533 1.60762C28.6559 1.20707 27.6843 1.00005 26.7016 1.00006Z" stroke="white" stroke-width="1.87004" stroke-linecap="round" stroke-linejoin="round"/>
<path d="M29.9615 13.51C30.9903 13.2748 33.3153 11.7493 33.6651 8.77469M25.673 21.361C21.4755 20.8907 19.8148 16.4641 19.7061 14.6622M33.5504 22.1458C34.5969 22.9689 35.4316 24.8412 35.6991 26.3403" stroke="white" stroke-width="1.87004" stroke-linecap="round" stroke-linejoin="round"/>
</svg>
