<svg width="83" height="15" viewBox="0 0 83 15" fill="none" xmlns="http://www.w3.org/2000/svg">
<path d="M7.83474 0.000260246C7.65191 -0.000793349 7.47251 0.049866 7.31723 0.146393C7.16195 0.242921 7.03713 0.381382 6.95717 0.545802L5.06687 4.37733L0.838676 4.99143C0.657775 5.0177 0.487836 5.09407 0.348085 5.21191C0.208333 5.32974 0.104345 5.48433 0.0478865 5.65819C-0.00857229 5.83205 -0.0152491 6.01824 0.0286113 6.1957C0.0724717 6.37316 0.165119 6.5348 0.296072 6.66234L3.35581 9.64372L2.63299 13.8553C2.60213 14.0354 2.62227 14.2205 2.69115 14.3898C2.76002 14.5591 2.87488 14.7057 3.02273 14.8131C3.17059 14.9205 3.34554 14.9844 3.52781 14.9976C3.71008 15.0107 3.89239 14.9726 4.05414 14.8876L7.83474 12.8993V0.000260246Z" fill="#FCD53F"/>
<path d="M7.83504 1.6105e-05C8.01788 -0.00103745 8.19728 0.04962 8.35256 0.146144C8.50784 0.242668 8.63266 0.381124 8.71263 0.545538L10.603 4.37692L14.8312 4.991C15.0121 5.01727 15.1821 5.09364 15.3218 5.21147C15.4616 5.3293 15.5656 5.48388 15.622 5.65774C15.6785 5.83159 15.6852 6.01777 15.6413 6.19523C15.5974 6.37268 15.5048 6.53431 15.3738 6.66185L12.3141 9.64312L13.0369 13.8545C13.0677 14.0346 13.0476 14.2198 12.9787 14.389C12.9098 14.5583 12.795 14.7049 12.6471 14.8123C12.4993 14.9197 12.3243 14.9836 12.1421 14.9968C11.9598 15.0099 11.7775 14.9718 11.6157 14.8868L7.83504 12.8986V1.6105e-05Z" fill="#FCD53F"/>
<path d="M26.5047 0.000260246C26.3218 -0.000793349 26.1424 0.049866 25.9872 0.146393C25.8319 0.242921 25.7071 0.381382 25.6271 0.545802L23.7368 4.37733L19.5086 4.99143C19.3277 5.0177 19.1578 5.09407 19.018 5.21191C18.8783 5.32974 18.7743 5.48433 18.7178 5.65819C18.6613 5.83205 18.6547 6.01824 18.6985 6.1957C18.7424 6.37316 18.835 6.5348 18.966 6.66234L22.0257 9.64372L21.3029 13.8553C21.2721 14.0354 21.2922 14.2205 21.3611 14.3898C21.4299 14.5591 21.5448 14.7057 21.6927 14.8131C21.8405 14.9205 22.0155 14.9844 22.1977 14.9976C22.38 15.0107 22.5623 14.9726 22.7241 14.8876L26.5047 12.8993V0.000260246Z" fill="#FCD53F"/>
<path d="M26.505 1.6105e-05C26.6878 -0.00103745 26.8672 0.04962 27.0225 0.146144C27.1778 0.242668 27.3026 0.381124 27.3825 0.545538L29.2729 4.37692L33.5012 4.991C33.6821 5.01727 33.852 5.09364 33.9918 5.21147C34.1315 5.3293 34.2355 5.48388 34.292 5.65774C34.3484 5.83159 34.3551 6.01777 34.3112 6.19523C34.2674 6.37268 34.1747 6.53431 34.0438 6.66185L30.984 9.64312L31.7068 13.8545C31.7377 14.0346 31.7175 14.2198 31.6486 14.389C31.5798 14.5583 31.4649 14.7049 31.3171 14.8123C31.1692 14.9197 30.9942 14.9836 30.812 14.9968C30.6297 15.0099 30.4474 14.9718 30.2856 14.8868L26.505 12.8986V1.6105e-05Z" fill="#FCD53F"/>
<path d="M45.1746 0.000260246C44.9918 -0.000793349 44.8123 0.049866 44.6571 0.146393C44.5018 0.242921 44.377 0.381382 44.297 0.545802L42.4067 4.37733L38.1785 4.99143C37.9976 5.0177 37.8277 5.09407 37.6879 5.21191C37.5482 5.32974 37.4442 5.48433 37.3877 5.65819C37.3313 5.83205 37.3246 6.01824 37.3685 6.1957C37.4123 6.37316 37.505 6.5348 37.6359 6.66234L40.6957 9.64372L39.9728 13.8553C39.942 14.0354 39.9621 14.2205 40.031 14.3898C40.0999 14.5591 40.2147 14.7057 40.3626 14.8131C40.5104 14.9205 40.6854 14.9844 40.8677 14.9976C41.0499 15.0107 41.2322 14.9726 41.394 14.8876L45.1746 12.8993V0.000260246Z" fill="#FCD53F"/>
<path d="M45.1749 1.6105e-05C45.3577 -0.00103745 45.5371 0.04962 45.6924 0.146144C45.8477 0.242668 45.9725 0.381124 46.0525 0.545538L47.9428 4.37692L52.1711 4.991C52.352 5.01727 52.5219 5.09364 52.6617 5.21147C52.8014 5.3293 52.9054 5.48388 52.9619 5.65774C53.0183 5.83159 53.025 6.01777 52.9812 6.19523C52.9373 6.37268 52.8446 6.53431 52.7137 6.66185L49.6539 9.64312L50.3767 13.8545C50.4076 14.0346 50.3874 14.2198 50.3186 14.389C50.2497 14.5583 50.1348 14.7049 49.987 14.8123C49.8391 14.9197 49.6642 14.9836 49.4819 14.9968C49.2996 15.0099 49.1173 14.9718 48.9556 14.8868L45.1749 12.8986V1.6105e-05Z" fill="#FCD53F"/>
<path d="M63.8445 0.000260246C63.6617 -0.000793349 63.4823 0.049866 63.327 0.146393C63.1717 0.242921 63.0469 0.381382 62.9669 0.545802L61.0766 4.37733L56.8484 4.99143C56.6675 5.0177 56.4976 5.09407 56.3579 5.21191C56.2181 5.32974 56.1141 5.48433 56.0577 5.65819C56.0012 5.83205 55.9945 6.01824 56.0384 6.1957C56.0822 6.37316 56.1749 6.5348 56.3058 6.66234L59.3656 9.64372L58.6428 13.8553C58.6119 14.0354 58.632 14.2205 58.7009 14.3898C58.7698 14.5591 58.8846 14.7057 59.0325 14.8131C59.1804 14.9205 59.3553 14.9844 59.5376 14.9976C59.7198 15.0107 59.9022 14.9726 60.0639 14.8876L63.8445 12.8993V0.000260246Z" fill="#FCD53F"/>
<path d="M63.8448 1.6105e-05C64.0276 -0.00103745 64.207 0.04962 64.3623 0.146144C64.5176 0.242668 64.6424 0.381124 64.7224 0.545538L66.6127 4.37692L70.841 4.991C71.0219 5.01727 71.1918 5.09364 71.3316 5.21147C71.4714 5.3293 71.5753 5.48388 71.6318 5.65774C71.6883 5.83159 71.6949 6.01777 71.6511 6.19523C71.6072 6.37268 71.5146 6.53431 71.3836 6.66185L68.3238 9.64312L69.0467 13.8545C69.0775 14.0346 69.0574 14.2198 68.9885 14.389C68.9196 14.5583 68.8048 14.7049 68.6569 14.8123C68.509 14.9197 68.3341 14.9836 68.1518 14.9968C67.9695 15.0099 67.7872 14.9718 67.6255 14.8868L63.8448 12.8986V1.6105e-05Z" fill="#FCD53F"/>
<path d="M82.5144 1.61056e-05C82.3316 -0.00103749 82.1522 0.0496219 81.9969 0.146149C81.8416 0.242677 81.7168 0.381138 81.6369 0.545558L79.7466 4.37709L75.5184 4.99119C75.3375 5.01746 75.1675 5.09383 75.0278 5.21166C74.888 5.32949 74.784 5.48408 74.7276 5.65794C74.6711 5.83181 74.6644 6.018 74.7083 6.19545C74.7522 6.37291 74.8448 6.53455 74.9758 6.66209L78.0355 9.64348L77.3127 13.855C77.2818 14.0351 77.302 14.2203 77.3708 14.3896C77.4397 14.5588 77.5546 14.7055 77.7024 14.8129C77.8503 14.9203 78.0252 14.9842 78.2075 14.9973C78.3898 15.0105 78.5721 14.9724 78.7338 14.8873L82.5144 12.8991V1.61056e-05Z" fill="#FCD53F"/>
</svg>
