<svg width="34" height="30" viewBox="0 0 34 30" fill="none" xmlns="http://www.w3.org/2000/svg">
<path d="M33.5724 8.73177L17.3805 0.0960821C17.2636 0.033017 17.1328 0 17 0C16.8672 0 16.7364 0.033017 16.6195 0.0960821L0.42757 8.73177C0.298375 8.80092 0.19037 8.90383 0.11507 9.02954C0.0397703 9.15524 0 9.29903 0 9.44557C0 9.5921 0.0397703 9.73589 0.11507 9.86159C0.19037 9.9873 0.298375 10.0902 0.42757 10.1594L4.31633 12.2346V18.93C4.31621 19.3938 4.48671 19.8414 4.79534 20.1876C6.53192 22.1211 10.4274 25.3676 17 25.3676C19.3144 25.3894 21.6093 24.9428 23.7466 24.0547V28.8759C23.7466 29.0906 23.8319 29.2965 23.9838 29.4483C24.1356 29.6002 24.3415 29.6855 24.5562 29.6855C24.7709 29.6855 24.9769 29.6002 25.1287 29.4483C25.2805 29.2965 25.3658 29.0906 25.3658 28.8759V23.2559C26.8028 22.4466 28.0992 21.41 29.2047 20.1862C29.5141 19.841 29.6847 19.3935 29.6837 18.93V12.2346L33.5724 10.1594C33.7016 10.0902 33.8096 9.9873 33.8849 9.86159C33.9602 9.73589 34 9.5921 34 9.44557C34 9.29903 33.9602 9.15524 33.8849 9.02954C33.8096 8.90383 33.7016 8.80092 33.5724 8.73177ZM17 23.7484C11.063 23.7484 7.55471 20.8393 6.00029 19.1054C5.95849 19.0565 5.93552 18.9943 5.93552 18.93V13.0982L16.6195 18.795C16.7366 18.8574 16.8673 18.89 17 18.89C17.1327 18.89 17.2634 18.8574 17.3805 18.795L23.7466 15.4001V22.2817C21.9925 23.121 19.7594 23.7484 17 23.7484ZM28.0645 18.93C28.0645 18.9943 28.0415 19.0565 27.9997 19.1054C27.2221 19.9668 26.3368 20.7246 25.3658 21.3601V14.5366L28.0645 13.0982V18.93ZM25.0757 12.858C25.034 12.8218 24.9888 12.7897 24.9408 12.7622L17.3846 8.73312C17.1963 8.64271 16.9804 8.62854 16.782 8.69356C16.5835 8.75859 16.4179 8.89778 16.3196 9.08206C16.2214 9.26635 16.1982 9.48146 16.2548 9.68247C16.3114 9.88347 16.4435 10.0548 16.6235 10.1607L23.3756 13.7634L17 17.1637L2.52847 9.44557L17 1.72742L31.4715 9.44557L25.0757 12.858Z" fill="white"/>
</svg>
