<svg width="26" height="34" viewBox="0 0 26 34" fill="none" xmlns="http://www.w3.org/2000/svg">
<path d="M12.6512 2.37209C6.62605 2.37209 2.37209 6.70986 2.37209 12.0487C2.37209 14.4777 3.37154 16.116 4.62558 17.6784C4.89758 18.0184 5.17433 18.3458 5.45898 18.6826L5.61079 18.8597C5.94288 19.2551 6.28605 19.6631 6.60707 20.0837C7.24595 20.9234 7.8453 21.8675 8.18056 22.984C8.26267 23.2826 8.22475 23.6014 8.07491 23.8724C7.92506 24.1434 7.67518 24.3451 7.37864 24.4343C7.08211 24.5235 6.76245 24.4932 6.48796 24.3498C6.21347 24.2065 6.00593 23.9615 5.90967 23.6672C5.69144 22.9397 5.28186 22.2597 4.71888 21.5212C4.42178 21.137 4.11488 20.7606 3.79851 20.3921L3.65302 20.2181C3.36837 19.8829 3.06791 19.5287 2.77535 19.1633C1.37581 17.4207 0 15.262 0 12.0471C0 5.31823 5.40047 0 12.6512 0C19.9019 0 25.3023 5.31665 25.3023 12.0487C25.3023 15.262 23.9265 17.4207 22.527 19.1649C22.2344 19.5287 21.934 19.8829 21.6493 20.2197L21.5038 20.3921C21.1717 20.7843 20.8633 21.1527 20.5834 21.5212C20.0205 22.2597 19.6109 22.9413 19.3927 23.6672C19.2917 23.9559 19.0833 24.1946 18.8107 24.3335C18.5382 24.4723 18.2226 24.5007 17.9296 24.4126C17.6367 24.3246 17.389 24.1269 17.2382 23.8607C17.0874 23.5946 17.0452 23.2805 17.1202 22.984C17.457 21.8675 18.0564 20.9234 18.6968 20.0837C19.0163 19.6631 19.3594 19.2551 19.6931 18.8597L19.8433 18.6826C20.128 18.3458 20.4047 18.0184 20.6767 17.68C21.9308 16.1144 22.9302 14.4777 22.9302 12.0487C22.9302 6.70986 18.6763 2.37209 12.6512 2.37209ZM7.51163 26.8837H17.7907C18.1053 26.8837 18.4069 27.0087 18.6294 27.2311C18.8518 27.4535 18.9767 27.7552 18.9767 28.0698C18.9767 28.3843 18.8518 28.686 18.6294 28.9084C18.4069 29.1309 18.1053 29.2558 17.7907 29.2558H7.51163C7.19707 29.2558 6.89539 29.1309 6.67297 28.9084C6.45054 28.686 6.32558 28.3843 6.32558 28.0698C6.32558 27.7552 6.45054 27.4535 6.67297 27.2311C6.89539 27.0087 7.19707 26.8837 7.51163 26.8837ZM8.69767 32.814C8.69767 32.4994 8.82263 32.1977 9.04506 31.9753C9.26749 31.7529 9.56916 31.6279 9.88372 31.6279H15.4186C15.7332 31.6279 16.0348 31.7529 16.2573 31.9753C16.4797 32.1977 16.6047 32.4994 16.6047 32.814C16.6047 33.1285 16.4797 33.4302 16.2573 33.6526C16.0348 33.875 15.7332 34 15.4186 34H9.88372C9.56916 34 9.26749 33.875 9.04506 33.6526C8.82263 33.4302 8.69767 33.1285 8.69767 32.814Z" fill="white"/>
</svg>
