<svg width="25" height="25" viewBox="0 0 25 25" fill="none" xmlns="http://www.w3.org/2000/svg">
<path d="M12.5013 8.75C11.5067 8.75 10.5529 9.14509 9.8496 9.84835C9.14634 10.5516 8.75125 11.5054 8.75125 12.5C8.75125 13.4946 9.14634 14.4484 9.8496 15.1517C10.5529 15.8549 11.5067 16.25 12.5013 16.25C13.4958 16.25 14.4496 15.8549 15.1529 15.1517C15.8562 14.4484 16.2513 13.4946 16.2513 12.5C16.2513 11.5054 15.8562 10.5516 15.1529 9.84835C14.4496 9.14509 13.4958 8.75 12.5013 8.75ZM12.5013 6.25C14.1589 6.25 15.7486 6.90848 16.9207 8.08058C18.0928 9.25268 18.7512 10.8424 18.7512 12.5C18.7512 14.1576 18.0928 15.7473 16.9207 16.9194C15.7486 18.0915 14.1589 18.75 12.5013 18.75C10.8436 18.75 9.25394 18.0915 8.08183 16.9194C6.90973 15.7473 6.25125 14.1576 6.25125 12.5C6.25125 10.8424 6.90973 9.25268 8.08183 8.08058C9.25394 6.90848 10.8436 6.25 12.5013 6.25ZM20.6262 5.9375C20.6262 6.3519 20.4616 6.74933 20.1686 7.04235C19.8756 7.33538 19.4781 7.5 19.0637 7.5C18.6493 7.5 18.2519 7.33538 17.9589 7.04235C17.6659 6.74933 17.5012 6.3519 17.5012 5.9375C17.5012 5.5231 17.6659 5.12567 17.9589 4.83265C18.2519 4.53962 18.6493 4.375 19.0637 4.375C19.4781 4.375 19.8756 4.53962 20.1686 4.83265C20.4616 5.12567 20.6262 5.5231 20.6262 5.9375ZM12.5013 2.5C9.40875 2.5 8.90375 2.50875 7.465 2.5725C6.485 2.61875 5.8275 2.75 5.2175 2.9875C4.70729 3.17546 4.2459 3.47579 3.8675 3.86625C3.47659 4.24452 3.17583 4.70592 2.9875 5.21625C2.75 5.82875 2.61875 6.485 2.57375 7.46375C2.50875 8.84375 2.5 9.32625 2.5 12.5C2.5 15.5938 2.50875 16.0975 2.5725 17.5362C2.61875 18.515 2.75 19.1737 2.98625 19.7825C3.19875 20.3263 3.44875 20.7175 3.86375 21.1325C4.285 21.5525 4.67625 21.8037 5.21375 22.0112C5.83125 22.25 6.48875 22.3825 7.46375 22.4275C8.84375 22.4925 9.32625 22.5 12.5 22.5C15.5938 22.5 16.0975 22.4912 17.5362 22.4275C18.5138 22.3812 19.1712 22.25 19.7825 22.0138C20.2927 21.8258 20.7541 21.5255 21.1325 21.135C21.5538 20.715 21.805 20.3237 22.0125 19.785C22.25 19.17 22.3825 18.5125 22.4275 17.535C22.4925 16.1562 22.5 15.6725 22.5 12.5C22.5 9.4075 22.4912 8.9025 22.4275 7.46375C22.3812 6.48625 22.2488 5.82625 22.0125 5.21625C21.8245 4.70604 21.5242 4.24465 21.1337 3.86625C20.7555 3.47534 20.2941 3.17458 19.7837 2.98625C19.1712 2.74875 18.5138 2.6175 17.5362 2.5725C16.1575 2.5075 15.675 2.5 12.5 2.5M12.5 0C15.8962 0 16.32 0.0124999 17.6537 0.0749999C18.9837 0.1375 19.8912 0.34625 20.6875 0.65625C21.5125 0.97375 22.2075 1.40375 22.9025 2.0975C23.5384 2.72217 24.0302 3.47809 24.3438 4.3125C24.6525 5.10875 24.8625 6.01625 24.925 7.3475C24.9838 8.68 25 9.10375 25 12.5C25 15.8962 24.9875 16.32 24.925 17.6525C24.8625 18.985 24.6525 19.89 24.3438 20.6875C24.0302 21.5219 23.5384 22.2778 22.9025 22.9025C22.2778 23.5384 21.5219 24.0302 20.6875 24.3438C19.8912 24.6525 18.9837 24.8625 17.6537 24.925C16.32 24.9838 15.8962 25 12.5 25C9.10375 25 8.68 24.9875 7.34625 24.925C6.01625 24.8625 5.11 24.6525 4.3125 24.3438C3.47809 24.0302 2.72217 23.5384 2.0975 22.9025C1.46163 22.2778 0.96977 21.5219 0.65625 20.6875C0.34625 19.8912 0.1375 18.9837 0.0749999 17.6525C0.0149999 16.32 0 15.8962 0 12.5C0 9.10375 0.0124999 8.68 0.0749999 7.3475C0.1375 6.015 0.34625 5.11 0.65625 4.3125C0.96977 3.47809 1.46163 2.72217 2.0975 2.0975C2.72217 1.46163 3.47809 0.96977 4.3125 0.65625C5.10875 0.34625 6.015 0.1375 7.34625 0.0749999C8.68125 0.0162499 9.105 0 12.5013 0" fill="white"/>
</svg>
