<svg width="32" height="32" viewBox="0 0 32 32" fill="none" xmlns="http://www.w3.org/2000/svg">
<path d="M31.1111 0L30.8267 0.0533333L21.3333 3.73333L10.6667 0L0.64 3.37778C0.266666 3.50222 0 3.82222 0 4.23111V31.1111C0 31.6089 0.391111 32 0.888889 32L1.17333 31.9467L10.6667 28.2667L21.3333 32L31.36 28.6222C31.7333 28.4978 32 28.1778 32 27.7689V0.888889C32 0.391111 31.6089 0 31.1111 0ZM12.4444 4.39111L19.5556 6.88V27.6089L12.4444 25.12V4.39111ZM3.55556 6.15111L8.88889 4.35556V25.1556L3.55556 27.2178V6.15111ZM28.4444 25.8489L23.1111 27.6444V6.86222L28.4444 4.8V25.8489Z" fill="white"/>
</svg>
