<svg width="30" height="30" viewBox="0 0 30 30" fill="none" xmlns="http://www.w3.org/2000/svg">
<path d="M25.2455 10.8281C25.971 11.1719 26.6239 11.5938 27.2042 12.0938C27.7846 12.5938 28.2868 13.1562 28.7109 13.7812C29.135 14.4062 29.4531 15.0729 29.6652 15.7812C29.8772 16.4896 29.9888 17.2292 30 18H27.8571C27.8571 17.1771 27.6897 16.401 27.3549 15.6719C27.0201 14.9427 26.5569 14.3073 25.9654 13.7656C25.3739 13.224 24.6931 12.7969 23.923 12.4844C23.1529 12.1719 22.3214 12.0104 21.4286 12C20.5469 12 19.7154 12.1562 18.9342 12.4688C18.1529 12.7812 17.4721 13.2135 16.8917 13.7656C16.3114 14.3177 15.8538 14.9531 15.519 15.6719C15.1842 16.3906 15.0112 17.1667 15 18C15 18.9479 14.7712 19.849 14.3136 20.7031C13.856 21.5573 13.2143 22.2656 12.3884 22.8281C13.1138 23.1719 13.7667 23.5938 14.3471 24.0938C14.9275 24.5938 15.4297 25.1562 15.8538 25.7812C16.2779 26.4062 16.596 27.0729 16.808 27.7812C17.0201 28.4896 17.1317 29.2292 17.1429 30H15C15 29.1771 14.8326 28.401 14.4978 27.6719C14.1629 26.9427 13.6998 26.3073 13.1083 25.7656C12.5167 25.224 11.8359 24.7969 11.0658 24.4844C10.2958 24.1719 9.46429 24.0104 8.57143 24C7.68973 24 6.85826 24.1562 6.07701 24.4688C5.29576 24.7812 4.61496 25.2135 4.0346 25.7656C3.45424 26.3177 2.99665 26.9531 2.66183 27.6719C2.32701 28.3906 2.15402 29.1667 2.14286 30H0C0 29.2396 0.111607 28.5052 0.334821 27.7969C0.558036 27.0885 0.876116 26.4219 1.28906 25.7969C1.70201 25.1719 2.19866 24.6094 2.77902 24.1094C3.35937 23.6094 4.01786 23.1823 4.75446 22.8281C3.93973 22.2656 3.30357 21.5573 2.84598 20.7031C2.38839 19.849 2.15402 18.9479 2.14286 18C2.14286 17.1771 2.31027 16.401 2.64509 15.6719C2.97991 14.9427 3.44308 14.3073 4.0346 13.7656C4.62612 13.224 5.30692 12.7969 6.07701 12.4844C6.8471 12.1719 7.67857 12.0104 8.57143 12C9.58705 12 10.5525 12.2135 11.4676 12.6406C12.3828 13.0677 13.1417 13.6667 13.7444 14.4375C14.1685 13.6562 14.7098 12.9583 15.3683 12.3438C16.0268 11.7292 16.7746 11.224 17.6116 10.8281C16.7969 10.2656 16.1607 9.55729 15.7031 8.70312C15.2455 7.84896 15.0112 6.94792 15 6C15 5.17708 15.1674 4.40104 15.5022 3.67188C15.8371 2.94271 16.3002 2.30729 16.8917 1.76562C17.4833 1.22396 18.1641 0.796875 18.9342 0.484375C19.7042 0.171875 20.5357 0.0104167 21.4286 0C22.3103 0 23.1417 0.15625 23.923 0.46875C24.7042 0.78125 25.385 1.21354 25.9654 1.76562C26.5458 2.31771 27.0033 2.95312 27.3382 3.67188C27.673 4.39062 27.846 5.16667 27.8571 6C27.8571 6.94792 27.6283 7.84896 27.1708 8.70312C26.7132 9.55729 26.0714 10.2656 25.2455 10.8281ZM8.57143 22C9.15179 22 9.70424 21.8958 10.2288 21.6875C10.7533 21.4792 11.2054 21.1927 11.5848 20.8281C11.9643 20.4635 12.2712 20.0417 12.5056 19.5625C12.74 19.0833 12.8571 18.5625 12.8571 18C12.8571 17.4583 12.7455 16.9427 12.5223 16.4531C12.2991 15.9635 11.9922 15.5417 11.6016 15.1875C11.2109 14.8333 10.7533 14.5469 10.2288 14.3281C9.70424 14.1094 9.15179 14 8.57143 14C7.97991 14 7.42746 14.1042 6.91406 14.3125C6.40067 14.5208 5.94866 14.8073 5.55804 15.1719C5.16741 15.5365 4.86049 15.9635 4.63728 16.4531C4.41406 16.9427 4.29687 17.4583 4.28571 18C4.28571 18.5521 4.39732 19.0677 4.62054 19.5469C4.84375 20.026 5.15067 20.4479 5.54129 20.8125C5.93192 21.1771 6.38393 21.4635 6.89732 21.6719C7.41071 21.8802 7.96875 21.9896 8.57143 22ZM17.1429 6C17.1429 6.55208 17.2545 7.06771 17.4777 7.54688C17.7009 8.02604 18.0078 8.44792 18.3984 8.8125C18.7891 9.17708 19.2411 9.46354 19.7545 9.67188C20.2679 9.88021 20.8259 9.98958 21.4286 10C22.0089 10 22.5614 9.89583 23.0859 9.6875C23.6105 9.47917 24.0625 9.19271 24.442 8.82812C24.8214 8.46354 25.1283 8.04167 25.3627 7.5625C25.5971 7.08333 25.7143 6.5625 25.7143 6C25.7143 5.45833 25.6027 4.94271 25.3795 4.45312C25.1562 3.96354 24.8493 3.54167 24.4587 3.1875C24.0681 2.83333 23.6105 2.54688 23.0859 2.32812C22.5614 2.10938 22.0089 2 21.4286 2C20.8371 2 20.2846 2.10417 19.7712 2.3125C19.2578 2.52083 18.8058 2.80729 18.4152 3.17188C18.0246 3.53646 17.7176 3.96354 17.4944 4.45312C17.2712 4.94271 17.154 5.45833 17.1429 6Z" fill="white"/>
</svg>
