<svg width="1440" height="806" viewBox="0 0 1440 806" fill="none" xmlns="http://www.w3.org/2000/svg">
<g clip-path="url(#clip0_62_12)">
<rect width="1440" height="806" fill="white"/>
<path fill-rule="evenodd" clip-rule="evenodd" d="M-641.4 70.1664C-645.804 72.7506 -648.282 77.2676 -647.846 81.9571C-647.646 84.0773 -646.845 86.1458 -645.529 87.9335L-639.3 96.3771C-640.645 98.6016 -641.277 101.161 -641.04 103.743C-640.814 106.116 -639.872 108.391 -638.303 110.339L-632.346 117.721C-633.822 120.053 -634.507 122.758 -634.253 125.523L-634.254 125.515C-634.009 128.149 -632.916 130.646 -631.086 132.738L-625.452 139.171C-627.022 141.604 -627.76 144.439 -627.493 147.306L-627.502 147.307C-627.229 150.202 -625.976 152.912 -623.868 155.145L-618.646 160.674C-620.281 163.182 -621.03 166.095 -620.752 169.083C-620.458 172.256 -619.037 175.177 -616.643 177.543L-611.878 182.247C-613.544 184.828 -614.311 187.819 -614.029 190.871C-613.713 194.263 -612.083 197.482 -609.426 199.942L-605.172 203.877C-606.845 206.517 -607.615 209.568 -607.325 212.652C-606.989 216.314 -605.171 219.751 -602.211 222.333L-598.504 225.557C-600.155 228.244 -600.913 231.336 -600.628 234.442C-600.261 238.389 -598.257 242.036 -594.986 244.723L-591.882 247.273C-593.511 249.991 -594.232 253.071 -593.942 256.225L-593.943 256.217C-593.554 260.45 -591.361 264.323 -587.771 267.113L-585.294 269.041C-586.87 271.783 -587.563 274.866 -587.274 278.01C-586.854 282.529 -584.465 286.609 -580.555 289.504L-578.736 290.849C-580.243 293.606 -580.9 296.682 -580.616 299.797C-580.173 304.535 -577.524 308.949 -573.34 311.895L-572.2 312.698C-573.633 315.456 -574.252 318.511 -573.966 321.584C-573.5 326.616 -570.636 331.245 -566.125 334.278L-565.677 334.58C-567.027 337.332 -567.605 340.357 -567.324 343.38L-567.315 343.379C-566.835 348.602 -563.867 353.367 -559.17 356.498C-560.428 359.227 -560.959 362.203 -560.683 365.169C-560.196 370.42 -557.296 375.188 -552.672 378.404C-553.858 381.104 -554.337 384.003 -554.061 386.959C-553.565 392.246 -550.729 397.024 -546.17 400.326C-547.273 403 -547.709 405.851 -547.438 408.749L-547.448 408.742C-546.952 414.073 -544.161 418.865 -539.671 422.244C-540.701 424.888 -541.1 427.697 -540.834 430.542L-540.825 430.541C-540.34 435.818 -537.54 440.706 -533.151 444.158C-534.109 446.777 -534.475 449.543 -534.22 452.333L-534.23 452.335C-533.73 457.642 -530.978 462.551 -526.641 466.08C-527.538 468.668 -527.872 471.388 -527.616 474.126C-527.123 479.477 -524.413 484.395 -520.127 487.99C-520.966 490.55 -521.272 493.23 -521.021 495.919L-521.03 495.92C-520.529 501.308 -517.853 506.253 -513.613 509.916C-514.393 512.442 -514.672 515.076 -514.426 517.713C-513.923 523.138 -511.291 528.105 -507.102 531.831C-507.829 534.327 -508.084 536.922 -507.847 539.517L-507.848 539.509C-507.106 547.46 -501.938 554.407 -494.02 558.101L206.855 885.129C212.993 887.994 220.025 888.565 226.648 886.719C233.272 884.88 238.69 880.854 241.909 875.38L609.419 251.057C611.708 247.163 612.703 242.797 612.304 238.433C611.572 230.489 606.403 223.534 598.485 219.84L-102.389 -107.188C-105.924 -108.838 -109.755 -109.725 -113.634 -109.829C-116.195 -110.661 -118.868 -111.113 -121.565 -111.176C-124.153 -112.025 -126.832 -112.462 -129.496 -112.514C-132.053 -113.372 -134.736 -113.828 -137.446 -113.874C-139.988 -114.737 -142.66 -115.194 -145.363 -115.231C-147.924 -116.111 -150.595 -116.553 -153.251 -116.584C-155.807 -117.486 -158.516 -117.954 -161.261 -117.966C-163.761 -118.855 -166.416 -119.316 -169.112 -119.326C-171.642 -120.248 -174.341 -120.717 -177.084 -120.71C-179.582 -121.632 -182.258 -122.098 -184.982 -122.083C-187.523 -123.038 -190.22 -123.493 -192.899 -123.47C-195.43 -124.441 -198.128 -124.901 -200.81 -124.868C-203.292 -125.844 -205.989 -126.328 -208.751 -126.278C-211.254 -127.275 -213.949 -127.74 -216.626 -127.685C-219.083 -128.698 -221.786 -129.197 -224.568 -129.122C-226.887 -130.093 -229.441 -130.59 -232.078 -130.562C-232.217 -130.56 -232.356 -130.557 -232.495 -130.553C-234.971 -131.606 -237.683 -132.088 -240.377 -131.993C-242.847 -133.073 -245.573 -133.566 -248.28 -133.457C-250.737 -134.559 -253.469 -135.06 -256.183 -134.936C-258.621 -136.056 -261.353 -136.565 -264.068 -136.428C-266.489 -137.569 -269.223 -138.089 -271.943 -137.94C-276.465 -140.13 -282.165 -140.092 -286.759 -137.404L-641.4 70.1664ZM-275.716 -137.289C-278.981 -138.052 -282.585 -137.628 -285.624 -135.851L-640.247 71.7171C-644.022 73.925 -646.14 77.7913 -645.764 81.8036C-645.599 83.6145 -644.913 85.383 -643.783 86.9114L-638.065 94.6621C-637.186 93.6255 -636.13 92.6987 -634.92 91.9236L-279.666 -135.488C-278.426 -136.282 -277.094 -136.88 -275.716 -137.289ZM-636.852 96.307C-636.019 95.2097 -634.961 94.2329 -633.701 93.4255L-278.466 -133.992C-276.623 -135.169 -274.544 -135.846 -272.437 -136.052C-271.763 -135.687 -271.124 -135.262 -270.531 -134.779C-271.236 -134.434 -271.919 -134.035 -272.574 -133.58L-625.526 111.661L-636.852 96.307ZM-637.986 98.158C-638.792 99.8315 -639.141 101.685 -638.966 103.591C-638.778 105.63 -637.964 107.59 -636.618 109.267L-631.122 116.079C-630.351 115.194 -629.451 114.387 -628.432 113.68L-627.178 112.809L-637.986 98.158ZM-626.036 114.357L-627.155 115.134C-628.204 115.862 -629.108 116.714 -629.85 117.655L-617.93 132.428L-614.564 129.906L-626.036 114.357ZM-613.421 131.457L-616.719 133.928L-604.839 148.652L-602.263 146.581L-613.421 131.457ZM-600.695 145.322L-611.812 130.251L-265.818 -128.999L-263.405 -125.728L-600.695 145.322ZM-601.109 148.145L-603.62 150.162L-592.088 164.453L-590.244 162.872L-601.109 148.145ZM-588.716 161.561L-599.542 146.885L-262.249 -124.161L-259.669 -120.663L-588.716 161.561ZM-589.084 164.445L-590.863 165.972L-579.647 179.872L-578.484 178.813L-589.084 164.445ZM-576.993 177.453L-587.556 163.135L-258.508 -119.089L-255.77 -115.377L-576.993 177.453ZM-577.318 180.394L-578.417 181.396L-567.494 194.933L-566.967 194.424L-577.318 180.394ZM-565.511 193.019L-575.827 179.034L-254.604 -113.796L-251.726 -109.896L-565.511 193.019ZM-565.792 196.017L-566.257 196.466L-556.967 207.98L-565.792 196.017ZM-554.249 208.286L-564.336 194.611L-250.549 -108.299L-247.542 -104.223L-554.249 208.286ZM-543.197 223.269L-553.069 209.886L-246.365 -102.628L-243.23 -98.3784L-543.197 223.269ZM-532.342 237.984L-542.009 224.879L-242.036 -96.7592L-238.804 -92.378L-532.342 237.984ZM-527.932 243.962L-531.138 239.616L-237.597 -90.7418L-234.259 -86.217L-521.357 252.111L-527.932 243.962ZM-494.754 288.94L-497.295 285.495L-493.225 290.142L-490.919 293L-494.754 288.94ZM-496.348 290.148L-491.825 296.278L-492.556 297.254L-503.042 286.903L-501.402 284.797L-496.348 290.148ZM-511.225 269.982L-506.104 276.924L-511.889 270.8L-511.225 269.982ZM-513.058 267.498L-512.447 268.326L-513.269 269.338L-523.857 258.129L-522.581 256.625L-513.058 267.498ZM-529.724 244.907L-527.126 248.428L-533.005 241.717L-532.634 241.3L-529.724 244.907ZM-490.588 297.955L-487.22 302.521L-491.122 298.669L-490.588 297.955ZM-480.504 308.258L-485.003 302.158L-479.958 307.5L-480.504 308.258ZM-478.082 311.541L-479.255 309.951L-478.557 308.982L-474.894 312.861L-469.251 319.854L-469.417 320.094L-478.082 311.541ZM-479.697 312.718L-480.603 311.824L-482.584 314.574L-472.231 324.148L-471.763 323.473L-479.697 312.718ZM-470.504 325.179L-470.743 325.524L-469.191 326.959L-470.504 325.179ZM-461.381 334.181L-469.301 323.445L-469.109 323.169L-459.278 332.873L-460.624 334.881L-461.381 334.181ZM-462.987 335.368L-461.92 336.815L-464.029 339.964L-474.464 330.885L-471.872 327.151L-462.987 335.368ZM-460.647 338.541L-452.186 350.009L-452.293 350.174L-462.494 341.299L-460.647 338.541ZM-451.026 348.219L-455.179 342.589L-450.302 347.1L-451.026 348.219ZM-444.73 356.754L-449.748 349.952L-448.8 348.488L-439.074 357.483L-440.774 360.196L-444.73 356.754ZM-446.323 357.957L-442.563 363.052L-444.377 365.947L-454.643 357.513L-451.829 353.166L-446.323 357.957ZM-441.278 364.795L-434.351 374.184L-442.808 367.237L-441.278 364.795ZM-431.926 374.112L-439.4 363.979L-430.484 371.737L-431.926 374.112ZM-428.06 379.353L-430.632 375.866L-428.94 373.08L-420.098 380.773L-419.432 381.598L-421.354 384.862L-428.06 379.353ZM-429.648 380.56L-432.205 378.458L-435.205 383.4L-425.116 391.253L-423.626 388.722L-429.648 380.56ZM-422.526 386.854L-423.357 385.728L-422.35 386.555L-422.526 386.854ZM-422.318 390.495L-423.503 392.508L-417.233 397.388L-422.318 390.495ZM-411.417 401.915L-421.219 388.627L-420.766 387.857L-401.827 403.416L-398.569 407.454C-400.779 407.775 -403.04 407.552 -405.101 406.831L-411.417 401.915ZM-412.972 403.163L-412.601 403.666C-410.987 405.859 -408.743 407.464 -406.219 408.419L-383.561 426.055L-383.108 426.615C-381.589 428.498 -379.612 429.918 -377.41 430.842L-354.111 448.976L-353.598 449.562C-352.207 451.153 -350.494 452.391 -348.604 453.262L-324.699 471.868L-324.107 472.495C-322.865 473.811 -321.406 474.871 -319.816 475.669L-295.206 494.823L-294.588 495.433C-293.528 496.481 -292.333 497.357 -291.047 498.06L-265.904 517.63L-265.107 518.367C-264.223 519.183 -263.258 519.89 -262.234 520.486L-236.376 540.612L-235.59 541.296C-234.939 541.861 -234.251 542.371 -233.532 542.826L-210.018 561.127L-427.906 399.986L-424.496 394.194L-412.972 403.163ZM-401.802 409.398C-400.287 409.515 -398.746 409.42 -397.239 409.102L-388.895 419.444L-401.802 409.398ZM-393.461 407.778L-381.815 417.345L-391.283 406.535L-392.659 407.341C-392.923 407.495 -393.19 407.641 -393.461 407.778ZM-389.029 405.216L-381.333 411.912L-388.146 404.699L-389.029 405.216ZM-389.533 403.299L-390.549 403.893L-392.276 402.391L-399.786 393.816L-389.533 403.299ZM-385.359 403.068L-362.648 425.485L-361.366 426.671L-8.39453 200.716C-4.72309 198.363 -2.76058 194.572 -3.12903 190.551L-3.13812 190.552C-3.32635 188.513 -4.1402 186.553 -5.48497 184.884L-176.507 -27.0777L-181.666 -18.3142L-33.8873 182.011C-32.5718 183.799 -31.7701 185.868 -31.5715 187.98C-31.1358 192.669 -33.6034 197.193 -38.0273 199.771L-385.359 403.068ZM-182.777 -16.4273L-35.6444 183.026C-34.5134 184.555 -33.8192 186.322 -33.6542 188.133L-33.6439 188.14C-33.2766 192.153 -35.3946 196.02 -39.1685 198.236L-386.766 401.679L-408.941 379.79L-413.3 375.175L-182.777 -16.4273ZM-182.976 -20.0899L-177.869 -28.7654L-181.959 -33.8352L-186.995 -25.5385L-182.976 -20.0899ZM-188.125 -23.6774L-184.086 -18.203L-414.749 373.641L-423.596 364.275L-188.125 -23.6774ZM-188.289 -27.2925L-183.305 -35.5034L-187.346 -40.5109L-192.257 -32.6716L-188.289 -27.2925ZM-193.407 -30.8373L-189.419 -25.4314L-425.032 362.754L-434.031 353.228L-193.407 -30.8373ZM-193.543 -34.4144L-188.684 -42.1695L-192.669 -47.1078L-197.454 -39.7164L-193.543 -34.4144ZM-198.624 -37.9099L-194.692 -32.58L-435.46 351.714L-444.614 342.023L-198.624 -37.9099ZM-198.737 -41.455L-194.005 -48.7638L-197.934 -53.6334L-202.591 -46.6805L-198.737 -41.455ZM-203.782 -44.9028L-199.906 -39.6484L-446.039 340.515L-451.983 334.221L-455.253 330.488L-203.782 -44.9028ZM-203.859 -48.3993L-199.256 -55.2717L-203.125 -60.0671L-207.653 -53.5423L-203.859 -48.3993ZM-208.866 -51.7947L-205.05 -46.6217L-456.629 328.917L-465.817 318.426L-208.866 -51.7947ZM-208.913 -55.2495L-204.439 -61.6957L-208.234 -66.3997L-212.633 -60.292L-208.913 -55.2495ZM-213.869 -58.5757L-210.126 -53.5019L-467.18 316.87L-476.541 306.183L-213.869 -58.5757ZM-213.887 -61.9929L-209.545 -68.0237L-213.274 -72.6462L-217.54 -66.945L-213.887 -61.9929ZM-218.8 -65.2613L-215.123 -60.2766L-477.896 304.636L-487.437 293.743L-218.8 -65.2613ZM-218.781 -68.6261L-214.57 -74.2526L-218.229 -78.787L-222.362 -73.4807L-218.781 -68.6261ZM-223.647 -71.831L-220.04 -66.9424L-488.78 292.209L-491.594 288.997L-498.249 280.749L-223.647 -71.831ZM-223.588 -75.1424L-219.511 -80.3761L-223.085 -84.8058L-227.084 -79.8822L-223.588 -75.1424ZM-228.395 -78.268L-224.872 -73.4927L-499.534 279.156L-509.074 267.334L-228.395 -78.268ZM-228.303 -81.5347L-224.362 -86.3877L-227.848 -90.7081L-231.711 -86.1548L-228.303 -81.5347ZM-233.05 -84.5777L-229.614 -79.9205L-510.353 265.748L-520.087 253.685L-233.05 -84.5777ZM-232.921 -87.794L-229.115 -92.2787L-232.502 -96.4761L-236.23 -92.2801L-232.921 -87.794ZM-237.437 -93.9162L-233.768 -98.0455L-237.046 -102.109L-240.639 -98.2568L-237.437 -93.9162ZM-241.833 -99.876L-238.301 -103.664L-241.481 -107.605L-244.937 -104.083L-241.833 -99.876ZM-246.114 -105.678L-242.718 -109.138L-245.766 -112.916L-249.088 -109.71L-246.114 -105.678ZM-250.265 -111.306L-247.006 -114.452L-249.921 -118.065L-253.108 -115.16L-250.265 -111.306ZM-254.274 -116.741L-251.15 -119.589L-253.921 -123.023L-256.976 -120.403L-254.274 -116.741ZM-258.137 -121.977L-255.146 -124.542L-257.754 -127.773L-260.679 -125.422L-258.137 -121.977ZM-261.835 -126.989L-258.975 -129.287L-260.68 -131.4C-260.835 -131.592 -260.995 -131.778 -261.16 -131.958C-262.208 -131.52 -263.21 -130.954 -264.136 -130.259L-264.207 -130.206L-261.835 -126.989ZM-265.357 -131.764C-264.512 -132.386 -263.614 -132.915 -262.679 -133.353C-263.262 -133.803 -263.885 -134.2 -264.537 -134.543C-265.394 -134.466 -266.246 -134.314 -267.08 -134.086C-266.987 -133.969 -266.896 -133.851 -266.808 -133.731L-265.357 -131.764ZM-269.083 -133.371C-269.851 -133.029 -270.593 -132.614 -271.296 -132.126L-624.384 113.209L-612.956 128.701L-266.968 -130.558L-268.555 -132.709C-268.723 -132.937 -268.899 -133.158 -269.083 -133.371ZM-268.495 -135.608C-268.31 -135.669 -268.124 -135.726 -267.938 -135.781C-268.253 -135.851 -268.571 -135.91 -268.891 -135.958C-268.757 -135.844 -268.625 -135.727 -268.495 -135.608ZM-392.564 405.073L-393.801 405.797C-394.217 406.04 -394.643 406.257 -395.077 406.45L-400.249 402.201L-411.512 388.242L-393.834 403.623L-392.564 405.073ZM-632.188 125.372C-632.383 123.285 -631.953 121.235 -630.989 119.404L-619.519 133.619L-621.943 135.436C-622.797 136.074 -623.564 136.786 -624.235 137.556L-629.447 131.605C-631.033 129.798 -631.976 127.647 -632.188 125.372ZM-620.608 136.842L-618.309 135.119L-606.386 149.895L-610.519 153.216L-622.913 139.065C-622.259 138.25 -621.487 137.501 -620.608 136.842ZM-609.239 154.678L-605.167 151.406L-593.596 165.747L-596.992 168.66L-609.239 154.678ZM-595.708 170.127L-592.371 167.265L-581.117 181.213L-583.831 183.687L-595.708 170.127ZM-582.543 185.157L-579.888 182.736L-568.929 196.318L-571.009 198.326L-582.543 185.157ZM-569.715 199.803L-567.692 197.851L-557.006 211.095L-558.496 212.613L-569.715 199.803ZM-557.199 214.094L-555.765 212.633L-545.334 225.56L-546.273 226.567L-557.199 214.094ZM-544.97 228.055L-544.086 227.107L-533.897 239.735L-534.322 240.212L-544.97 228.055ZM-456.55 332.426L-455.089 334.237L-451.512 337.768L-453.359 335.659L-456.493 332.341L-456.55 332.426ZM-448.951 345.013L-456.667 335.45L-457.816 334.316L-459.124 336.268L-449.219 345.428L-448.951 345.013ZM-467.651 321.837L-467.938 321.482L-467.968 321.525L-467.651 321.837ZM-446.844 347.624L-447.619 346.664L-447.718 346.817L-446.844 347.624ZM-444.104 347.851L-437.876 355.57L-437.267 354.599L-444.104 347.851ZM-439.235 361.535L-437.655 359.013L-429.155 369.547L-429.456 370.043L-439.235 361.535ZM-428.269 367.475L-428.057 367.738L-428.031 367.696L-428.269 367.475ZM-427.912 371.386L-427.809 371.216L-427.104 372.089L-427.912 371.386ZM-426.711 369.406L-418.519 379.558L-418.329 379.724L-417.164 377.745L-426.52 369.092L-426.711 369.406ZM-407.84 395.964L-418.073 383.282L-419.769 386.164L-407.84 395.964ZM-394.235 409.653L-382.013 424.8L-376.266 429.273C-374.459 429.988 -372.486 430.321 -370.515 430.247L-373.968 426.305L-394.235 409.653ZM-368.998 431.978C-370.242 432.133 -371.498 432.147 -372.735 432.022L-360.877 441.251L-368.998 431.978ZM-356.748 437.938L-365.172 431.018C-364.721 430.844 -364.277 430.648 -363.841 430.43L-356.748 437.938ZM-334.784 451.253L-359.911 428.017L-7.18415 202.219C-2.98878 199.526 -0.64158 195 -1.0646 190.399C-1.28191 188.025 -2.22368 185.75 -3.79272 183.802L-175.427 -28.9132L-170.91 -36.5857L24.6723 186.725C26.2581 188.531 27.2019 190.691 27.4134 192.958L27.4122 192.95C27.7828 196.922 25.9077 200.744 22.3876 203.187L-333.471 450.447C-333.895 450.742 -334.334 451.011 -334.784 451.253ZM-172.319 -38.1939L-176.788 -30.6009L-180.86 -35.6469L-176.45 -42.9115L-172.319 -38.1939ZM-177.844 -44.5021L-182.206 -37.315L-186.226 -42.2978L-181.925 -49.1626L-177.844 -44.5021ZM-183.311 -50.7451L-187.565 -43.9564L-191.528 -48.8689L-187.337 -55.3419L-183.311 -50.7451ZM-188.722 -56.923L-192.864 -50.5249L-196.772 -55.3677L-192.693 -61.4568L-188.722 -56.923ZM-194.064 -63.0218L-198.094 -57.0059L-201.941 -61.7734L-197.975 -67.4874L-194.064 -63.0218ZM-199.338 -69.0444L-203.255 -63.402L-207.027 -68.0767L-203.175 -73.425L-199.338 -69.0444ZM-204.536 -74.9789L-208.337 -69.7008L-212.042 -74.2928L-208.307 -79.2845L-204.536 -74.9789ZM-209.654 -80.8227L-213.338 -75.8992L-216.971 -80.4019L-213.354 -85.0467L-209.654 -80.8227ZM-214.687 -86.5695L-218.254 -81.9909L-221.801 -86.3874L-218.302 -90.696L-214.687 -86.5695ZM-219.63 -92.2132L-223.077 -87.9692L-226.535 -92.2548L-223.155 -96.2378L-219.63 -92.2132ZM-224.476 -97.7456L-227.802 -93.8254L-231.16 -97.9862L-227.9 -101.655L-224.476 -97.7456ZM-229.221 -103.163L-232.426 -99.5557L-235.674 -103.581L-232.534 -106.947L-229.221 -103.163ZM-233.844 -108.442L-236.928 -105.136L-240.076 -109.036L-237.058 -112.111L-233.844 -108.442ZM-238.351 -113.588L-241.313 -110.57L-244.327 -114.305L-241.429 -117.103L-238.351 -113.588ZM-242.726 -118.584L-245.567 -115.842L-248.446 -119.41L-245.668 -121.942L-242.726 -118.584ZM-246.956 -123.412L-249.675 -120.933L-252.409 -124.321L-249.843 -126.521C-249.812 -126.548 -249.78 -126.575 -249.749 -126.601L-246.956 -123.412ZM-251.279 -127.858L-253.634 -125.839L-256.178 -128.992C-255.255 -129.631 -254.266 -130.152 -253.235 -130.557C-253.089 -130.406 -252.945 -130.251 -252.806 -130.092L-251.032 -128.066C-251.115 -127.998 -251.198 -127.929 -251.279 -127.858ZM-254.824 -131.936C-255.716 -131.536 -256.577 -131.057 -257.393 -130.498L-258.987 -132.474C-259.032 -132.53 -259.077 -132.585 -259.122 -132.64C-258.309 -132.847 -257.479 -132.985 -256.645 -133.054C-256.009 -132.731 -255.4 -132.358 -254.824 -131.936ZM-260.173 -134.289C-260.317 -134.248 -260.459 -134.205 -260.601 -134.161C-260.702 -134.25 -260.804 -134.337 -260.908 -134.423C-260.662 -134.385 -260.417 -134.34 -260.173 -134.289ZM-366.867 429.625C-366.303 429.449 -365.747 429.236 -365.206 428.985L-367.621 426.427L-382.755 413.261L-372.412 425.07L-366.867 429.625ZM-624.055 140.766C-625.136 142.719 -625.626 144.923 -625.42 147.146C-625.184 149.657 -624.093 152.006 -622.267 153.942L-617.427 159.066C-616.841 158.396 -616.183 157.766 -615.456 157.184L-612.064 154.458L-624.055 140.766ZM-610.784 155.919L-614.07 158.56C-614.816 159.159 -615.479 159.816 -616.054 160.52L-603.275 174.049L-598.496 169.949L-610.784 155.919ZM-597.211 171.416L-601.935 175.468L-589.387 188.752L-585.295 185.021L-597.211 171.416ZM-584.007 186.491L-588.045 190.173L-575.892 203.04L-572.435 199.703L-584.007 186.491ZM-571.142 201.18L-574.545 204.466L-562.752 216.95L-559.887 214.03L-571.142 201.18ZM-558.59 215.511L-561.404 218.378L-549.947 230.507L-547.631 228.023L-558.59 215.511ZM-546.328 229.511L-548.594 231.94L-537.452 243.735L-535.648 241.705L-546.328 229.511ZM-534.331 243.209L-536.085 245.183L-525.23 256.675L-523.905 255.113L-534.331 243.209ZM-412.112 379.743L-414.143 377.424L-410.677 380.846L-408.999 382.622L-412.112 379.743ZM-433.601 358.218L-426.913 365.854L-426.992 365.983L-436.508 357.182L-435.798 356.049L-433.601 358.218ZM-413.66 380.985L-403.355 392.752L-416.774 381.077L-415.642 379.153L-413.66 380.985ZM-352.591 447.7L-364.564 434.031L-346.149 449.159L-342.624 452.891C-344.293 452.772 -345.935 452.372 -347.451 451.701L-352.591 447.7ZM-343.65 454.659C-342.723 454.773 -341.785 454.811 -340.848 454.772L-333.47 462.582L-343.65 454.659ZM-336.996 454.166L-333.418 457.105L-336.534 454.03C-336.619 454.056 -336.703 454.082 -336.788 454.107C-336.857 454.127 -336.926 454.147 -336.996 454.166ZM-333.304 452.622L-313.636 470.81L-308.579 475.21C-306.695 474.767 -304.889 473.956 -303.301 472.767L53.1709 205.665C56.5489 203.132 58.3467 199.285 57.9831 195.362L57.9842 195.37C57.7563 192.858 56.6657 190.509 54.8297 188.566L-165.891 -45.1112L-169.852 -38.3825L26.3111 185.591C28.1405 187.683 29.2428 190.179 29.488 192.814C29.9087 197.398 27.7328 201.831 23.6672 204.657L-332.191 451.917C-332.553 452.169 -332.925 452.404 -333.304 452.622ZM-171.261 -39.9908L-167.342 -46.6474L-171.507 -51.0563L-175.373 -44.6862L-171.261 -39.9908ZM-176.766 -46.2768L-172.943 -52.5765L-177.057 -56.9326L-180.828 -50.9141L-176.766 -46.2768ZM-182.214 -52.4966L-178.487 -58.4458L-182.545 -62.7429L-186.219 -57.0693L-182.214 -52.4966ZM-187.604 -58.6504L-183.975 -64.2558L-187.978 -68.4947L-191.553 -63.1592L-187.604 -58.6504ZM-192.923 -64.7242L-189.394 -69.993L-193.338 -74.1686L-196.811 -69.1636L-192.923 -64.7242ZM-198.175 -70.7206L-194.747 -75.6603L-198.616 -79.7564L-201.988 -75.0738L-198.175 -70.7206ZM-203.349 -76.6278L-200.023 -81.2463L-203.826 -85.2727L-207.095 -80.9047L-203.349 -76.6278ZM-208.442 -82.4429L-205.22 -86.7485L-208.952 -90.699L-212.115 -86.637L-208.442 -82.4429ZM-213.449 -88.1598L-210.333 -92.161L-213.978 -96.0201L-217.036 -92.255L-213.449 -88.1598ZM-218.364 -93.7721L-215.355 -97.4779L-218.909 -101.241L-221.86 -97.7638L-218.364 -93.7721ZM-223.181 -99.2716L-220.279 -102.691L-223.731 -106.346L-226.575 -103.146L-223.181 -99.2716ZM-227.896 -104.655L-225.103 -107.798L-228.443 -111.334L-231.177 -108.402L-227.896 -104.655ZM-232.487 -109.897L-229.804 -112.775L-233.042 -116.203L-235.667 -113.528L-232.487 -109.897ZM-236.961 -115.005L-234.387 -117.627L-237.486 -120.909L-240.003 -118.479L-236.961 -115.005ZM-241.301 -119.96L-238.837 -122.338L-241.763 -125.436C-242.08 -125.191 -242.387 -124.933 -242.684 -124.662L-244.205 -123.276L-241.301 -119.96ZM-245.492 -124.746L-244.169 -125.953C-243.824 -126.267 -243.467 -126.566 -243.098 -126.85L-244.933 -128.792C-245.054 -128.92 -245.177 -129.046 -245.303 -129.169C-246.292 -128.805 -247.246 -128.34 -248.144 -127.774L-245.492 -124.746ZM-249.424 -129.235C-248.637 -129.737 -247.812 -130.171 -246.959 -130.537C-247.522 -130.929 -248.112 -131.277 -248.725 -131.58C-249.541 -131.519 -250.353 -131.395 -251.151 -131.207L-249.424 -129.235ZM-252.694 -132.727C-252.591 -132.757 -252.487 -132.787 -252.384 -132.816C-252.561 -132.851 -252.738 -132.883 -252.916 -132.912C-252.842 -132.851 -252.767 -132.789 -252.694 -132.727ZM-338.073 452.511C-338.319 452.571 -338.566 452.625 -338.815 452.672L-344.552 447.958L-352.292 439.765L-341.284 449.341L-338.073 452.511ZM-618.679 168.931C-618.899 166.558 -618.378 164.242 -617.208 162.196L-604.788 175.346L-608.969 178.932C-609.595 179.469 -610.168 180.043 -610.685 180.648L-615.094 176.296C-617.187 174.234 -618.425 171.688 -618.679 168.931ZM-607.533 180.269L-603.447 176.765L-590.858 190.093L-596.192 194.955L-609.266 182.049C-608.755 181.417 -608.176 180.821 -607.533 180.269ZM-594.799 196.33L-589.516 191.513L-577.323 204.422L-582.014 208.95L-594.799 196.33ZM-580.618 210.328L-575.976 205.847L-564.147 218.371L-568.242 222.544L-580.618 210.328ZM-566.845 223.923L-562.798 219.799L-551.307 231.964L-554.85 235.763L-566.845 223.923ZM-553.449 237.146L-549.953 233.397L-538.778 245.228L-541.808 248.637L-553.449 237.146ZM-540.394 250.033L-537.411 246.676L-526.525 258.201L-529.075 261.206L-540.394 250.033ZM-527.656 262.606L-525.151 259.654L-514.534 270.895L-516.636 273.484L-527.656 262.606ZM-515.211 274.891L-513.153 272.357L-502.786 283.332L-504.47 285.493L-515.211 274.891ZM-367.419 423.749L-365.999 425.253L-363.379 427.532L-364.128 426.793L-367.419 423.749ZM-333.953 459.18L-323.156 470.61L-318.655 474.114C-317.482 474.687 -316.23 475.098 -314.942 475.343L-318.23 472.097L-333.953 459.18ZM-312.802 477.455C-313.394 477.431 -313.983 477.377 -314.568 477.295L-306.986 483.196L-312.802 477.455ZM-282.018 498.319L-306.884 476.685C-305.137 476.141 -303.471 475.311 -301.973 474.19L54.4981 207.081C58.3944 204.167 60.4681 199.729 60.0475 195.211C59.7836 192.315 58.5218 189.606 56.4138 187.373L-164.852 -46.8763L-161.377 -52.7806L84.996 190.406C87.0786 192.461 88.3185 195.016 88.5718 197.773L88.5707 197.765C88.9378 201.712 87.2603 205.495 83.9632 208.144L-273.122 495.094C-275.671 497.141 -278.833 498.207 -282.018 498.319ZM-162.866 -54.2512L-166.303 -48.4126L-170.448 -52.8006L-167.057 -58.3876L-162.866 -54.2512ZM-168.532 -59.8434L-171.884 -54.3207L-175.978 -58.655L-172.673 -63.9307L-168.532 -59.8434ZM-174.142 -65.3807L-177.407 -60.1682L-181.445 -64.4426L-178.227 -69.413L-174.142 -65.3807ZM-179.696 -70.8635L-182.874 -65.9556L-186.856 -70.1707L-183.727 -74.8416L-179.696 -70.8635ZM-185.183 -76.2788L-188.271 -71.669L-192.192 -75.8199L-189.153 -80.1979L-185.183 -76.2788ZM-190.604 -81.6297L-193.601 -77.3116L-197.445 -81.3817L-194.498 -85.474L-190.604 -81.6297ZM-195.948 -86.9051L-198.853 -82.8716L-202.63 -86.8709L-199.777 -90.6842L-195.948 -86.9051ZM-201.214 -92.1027L-204.024 -88.3468L-207.729 -92.2688L-204.97 -95.8107L-201.214 -92.1027ZM-206.395 -97.2167L-209.11 -93.7308L-212.727 -97.5601L-210.064 -100.839L-206.395 -97.2167ZM-211.486 -102.242L-214.104 -99.0178L-217.629 -102.75L-215.064 -105.773L-211.486 -102.242ZM-216.479 -107.17L-218.999 -104.2L-222.42 -107.822L-219.953 -110.599L-216.479 -107.17ZM-221.37 -111.998L-223.791 -109.274L-227.099 -112.775L-224.73 -115.315L-221.37 -111.998ZM-226.139 -116.705L-228.46 -114.216L-231.664 -117.608L-229.395 -119.92L-226.139 -116.705ZM-230.788 -121.294L-233.009 -119.032L-236.072 -122.274L-235.533 -122.794C-234.986 -123.323 -234.4 -123.808 -233.781 -124.249L-230.788 -121.294ZM-237.068 -124.046L-237.422 -123.704L-240.108 -126.547C-239.247 -127.046 -238.335 -127.463 -237.383 -127.794C-237.273 -127.692 -237.165 -127.589 -237.058 -127.484L-235.175 -125.624C-235.842 -125.144 -236.475 -124.617 -237.068 -124.046ZM-239.11 -129.149C-239.922 -128.814 -240.705 -128.42 -241.453 -127.972L-243.169 -129.788C-242.394 -129.955 -241.607 -130.065 -240.817 -130.119C-240.227 -129.835 -239.657 -129.512 -239.11 -129.149ZM-244.61 -131.355C-244.635 -131.348 -244.661 -131.34 -244.687 -131.333C-244.718 -131.325 -244.749 -131.316 -244.78 -131.307L-244.813 -131.334L-244.847 -131.362C-244.866 -131.377 -244.884 -131.392 -244.903 -131.407C-244.839 -131.396 -244.776 -131.385 -244.712 -131.373C-244.678 -131.367 -244.644 -131.361 -244.61 -131.355ZM-610.404 183.702C-611.637 185.837 -612.192 188.257 -611.964 190.719C-611.69 193.688 -610.257 196.501 -607.928 198.66L-604.01 202.284C-603.545 201.725 -603.034 201.191 -602.481 200.688L-597.653 196.287L-610.404 183.702ZM-596.261 197.662L-600.996 201.979C-601.565 202.498 -602.083 203.053 -602.545 203.638L-589.249 215.934L-583.435 210.322L-596.261 197.662ZM-582.039 211.7L-587.807 217.268L-574.836 229.262L-569.625 223.953L-582.039 211.7ZM-568.228 225.332L-573.394 230.596L-560.849 242.197L-556.197 237.208L-568.228 225.332ZM-554.796 238.59L-559.405 243.532L-547.255 254.768L-543.121 250.115L-554.796 238.59ZM-541.707 251.51L-545.799 256.115L-534.008 267.019L-530.355 262.715L-541.707 251.51ZM-528.937 264.115L-532.547 268.37L-521.089 278.966L-517.886 275.023L-528.937 264.115ZM-516.461 276.43L-519.622 280.322L-508.473 290.633L-505.691 287.061L-516.461 276.43ZM-504.263 288.47L-507.004 291.991L-496.137 302.04L-493.749 298.848L-504.263 288.47ZM-492.315 300.263L-494.664 303.402L-484.065 313.204L-482.046 310.399L-492.315 300.263ZM-316.705 470.836L-317.652 469.901L-315.32 471.93L-314.896 472.322L-316.705 470.836ZM-293.737 493.508L-301.518 485.828L-290.541 494.845L-287.695 497.478C-288.429 497.224 -289.144 496.914 -289.83 496.549L-293.737 493.508ZM-285.453 499.956C-285.28 499.983 -285.107 500.008 -284.934 500.031L-282.692 502.104L-285.453 499.956ZM-280.071 500.012L-261.097 516.521L-255.852 520.829C-251.347 521.6 -246.5 520.476 -242.95 517.43L114.748 210.631C117.923 207.905 119.532 204.097 119.17 200.182L119.179 200.181C118.905 197.212 117.47 194.391 115.152 192.239L-157.302 -59.7027L-160.35 -54.5254L86.5368 189.168C88.9313 191.534 90.3526 194.456 90.6454 197.62C91.0671 202.146 89.1364 206.486 85.3596 209.527L-271.734 496.478C-274.157 498.425 -277.065 499.597 -280.071 500.012ZM-161.839 -55.996L-158.827 -61.1131L-163.039 -65.0079L-166.01 -60.1128L-161.839 -55.996ZM-167.485 -61.5686L-164.55 -66.4047L-168.712 -70.2534L-171.605 -65.6353L-167.485 -61.5686ZM-173.074 -67.0853L-170.217 -71.6454L-174.323 -75.4425L-177.137 -71.096L-173.074 -67.0853ZM-178.607 -72.5466L-175.83 -76.8358L-179.881 -80.5821L-182.614 -76.5022L-178.607 -72.5466ZM-184.07 -77.9394L-181.375 -81.9631L-185.366 -85.6542L-188.017 -81.835L-184.07 -77.9394ZM-189.467 -83.2669L-186.855 -87.0309L-190.77 -90.6512L-193.337 -87.0865L-189.467 -83.2669ZM-194.787 -88.5176L-192.259 -92.0281L-196.108 -95.5872L-198.589 -92.2709L-194.787 -88.5176ZM-200.027 -93.6894L-197.585 -96.9528L-201.361 -100.445L-203.756 -97.3703L-200.027 -93.6894ZM-205.18 -98.7764L-202.826 -101.799L-206.514 -105.21L-208.821 -102.37L-205.18 -98.7764ZM-210.242 -103.773L-207.977 -106.562L-211.573 -109.888L-213.79 -107.275L-210.242 -103.773ZM-215.205 -108.671L-213.029 -111.235L-216.52 -114.462L-218.647 -112.069L-215.205 -108.671ZM-220.064 -113.468L-217.981 -115.813L-221.355 -118.933L-223.39 -116.751L-220.064 -113.468ZM-224.799 -118.142L-222.848 -120.234L-222.808 -120.277L-225.81 -123.053C-226.59 -122.542 -227.328 -121.962 -228.013 -121.314L-224.799 -118.142ZM-229.4 -122.683C-228.727 -123.31 -228.009 -123.879 -227.254 -124.389L-229.194 -126.182C-229.281 -126.263 -229.369 -126.342 -229.458 -126.421C-230.364 -126.124 -231.235 -125.754 -232.063 -125.312L-229.4 -122.683ZM-233.478 -126.708C-232.765 -127.108 -232.024 -127.462 -231.257 -127.766C-231.795 -128.107 -232.353 -128.411 -232.928 -128.678C-233.692 -128.631 -234.445 -128.534 -235.181 -128.389L-233.478 -126.708ZM-236.87 -129.909L-236.866 -129.91L-236.873 -129.911L-236.87 -129.909ZM-605.251 212.499C-605.484 209.975 -604.916 207.482 -603.656 205.279L-590.66 217.297L-595.992 222.444C-596.489 222.923 -596.949 223.426 -597.371 223.951L-600.756 221.006C-603.358 218.738 -604.95 215.72 -605.251 212.499ZM-594.467 223.697L-589.218 218.63L-576.209 230.661L-582.404 236.973L-595.864 225.262C-595.443 224.714 -594.977 224.191 -594.467 223.697ZM-580.92 238.264L-574.767 231.995L-562.186 243.63L-567.815 249.666L-580.92 238.264ZM-566.33 250.958L-560.742 244.965L-548.557 256.233L-553.663 261.979L-566.33 250.958ZM-552.166 263.281L-547.101 257.581L-535.277 268.515L-539.895 273.957L-552.166 263.281ZM-538.395 275.262L-533.816 269.866L-522.327 280.491L-526.492 285.619L-538.395 275.262ZM-524.987 286.928L-520.861 281.847L-509.682 292.185L-513.423 296.989L-524.987 286.928ZM-511.917 298.299L-508.214 293.543L-497.318 303.619L-500.664 308.09L-511.917 298.299ZM-499.155 309.403L-495.846 304.981L-485.22 314.807L-488.195 318.938L-499.155 309.403ZM-486.677 320.258L-483.739 316.177L-473.361 325.775L-475.987 329.559L-486.677 320.258ZM-264.588 516.168L-264.402 516.34L-263.958 516.686L-264.588 516.168ZM-228.964 542.919L-253.335 522.898C-249.088 522.951 -244.818 521.575 -241.525 518.752L116.173 211.961C119.801 208.846 121.648 204.5 121.233 200.022C120.927 196.637 119.287 193.41 116.631 190.959L-156.287 -61.4272L-153.61 -65.9734L145.29 194.074C147.891 196.334 149.484 199.36 149.785 202.581L149.794 202.58C150.153 206.471 148.603 210.305 145.539 213.1L-212.773 539.741C-217.103 543.693 -223.512 544.761 -228.964 542.919ZM-155.168 -67.3287L-157.812 -62.8377L-162.003 -66.7139L-159.397 -71.0079L-155.168 -67.3287ZM-160.941 -72.3507L-163.514 -68.1108L-167.655 -71.9401L-165.12 -75.9865L-160.941 -72.3507ZM-166.658 -77.3252L-169.16 -73.3321L-173.244 -77.1089L-170.782 -80.9124L-166.658 -77.3252ZM-172.322 -82.253L-174.751 -78.5023L-178.779 -82.2274L-176.391 -85.7925L-172.322 -82.253ZM-177.919 -87.1219L-180.272 -83.6085L-184.24 -87.2773L-181.927 -90.6093L-177.919 -87.1219ZM-183.451 -91.9352L-185.729 -88.6541L-189.618 -92.251L-187.382 -95.3554L-183.451 -91.9352ZM-188.908 -96.6823L-191.107 -93.628L-194.929 -97.1626L-192.772 -100.045L-188.908 -96.6823ZM-194.286 -101.361L-196.406 -98.5282L-200.154 -101.995L-198.078 -104.661L-194.286 -101.361ZM-199.58 -105.967L-201.619 -103.349L-205.278 -106.733L-203.283 -109.189L-199.58 -105.967ZM-204.783 -110.494L-206.74 -108.085L-210.305 -111.382L-208.393 -113.635L-204.783 -110.494ZM-209.888 -114.936L-211.762 -112.729L-215.219 -115.926L-214.099 -117.187C-213.862 -117.454 -213.617 -117.712 -213.365 -117.961L-209.888 -114.936ZM-215.739 -118.336L-216.68 -117.277L-219.946 -120.297C-219.283 -120.866 -218.573 -121.381 -217.823 -121.839L-214.858 -119.26C-215.161 -118.963 -215.455 -118.655 -215.739 -118.336ZM-219.335 -123.154C-220.055 -122.693 -220.741 -122.184 -221.388 -121.631L-224.024 -124.068C-223.218 -124.462 -222.381 -124.791 -221.523 -125.055C-221.455 -124.998 -221.388 -124.94 -221.321 -124.882L-219.335 -123.154ZM-223.384 -126.388C-224.109 -126.114 -224.817 -125.796 -225.503 -125.436L-227.187 -126.993C-226.475 -127.122 -225.748 -127.208 -225.01 -127.248C-224.45 -126.993 -223.907 -126.706 -223.384 -126.388ZM-596.951 226.909C-598.219 229.172 -598.791 231.728 -598.555 234.289C-598.235 237.772 -596.467 240.992 -593.582 243.368L-590.782 245.668C-590.385 245.158 -589.953 244.665 -589.487 244.19L-583.776 238.371L-596.951 226.909ZM-582.292 239.662L-587.93 245.407C-588.408 245.894 -588.846 246.405 -589.242 246.934L-575.668 258.086L-569.149 251.096L-582.292 239.662ZM-567.665 252.388L-574.145 259.337L-560.948 270.179L-554.961 263.44L-567.665 252.388ZM-553.464 264.743L-559.414 271.439L-546.654 281.922L-541.16 275.447L-553.464 264.743ZM-539.66 276.752L-545.118 283.184L-532.76 293.337L-527.724 287.136L-539.66 276.752ZM-526.22 288.446L-531.22 294.602L-519.234 304.449L-514.626 298.533L-526.22 288.446ZM-513.12 299.843L-517.693 305.715L-506.046 315.283L-501.837 309.658L-513.12 299.843ZM-500.328 310.971L-504.503 316.551L-493.176 325.856L-489.341 320.53L-500.328 310.971ZM-487.824 321.85L-491.626 327.13L-480.592 336.195L-477.107 331.174L-487.824 321.85ZM-475.584 332.499L-479.036 337.473L-468.28 346.31L-465.124 341.599L-475.584 332.499ZM-463.59 342.934L-466.713 347.597L-456.21 356.226L-453.365 351.83L-463.59 342.934ZM-225.807 545.513C-220.628 546.109 -215.206 544.612 -211.287 541.04L147.033 214.39C150.514 211.218 152.275 206.856 151.867 202.427C151.532 198.765 149.714 195.328 146.755 192.754L-152.601 -67.6878L-150.255 -71.6726L175.447 195.915C178.331 198.283 180.101 201.511 180.42 204.994L180.421 205.002C180.787 208.875 179.296 212.737 176.333 215.594L-182.592 562.076C-188.066 567.359 -197.105 568.006 -203.432 563.795L-205.772 561.973L-225.807 545.513ZM-154.159 -69.0431L-151.843 -72.9771L-156.086 -76.4629L-158.367 -72.7044L-154.159 -69.0431ZM-159.911 -74.0472L-157.66 -77.7559L-161.853 -81.2007L-164.068 -77.6643L-159.911 -74.0472ZM-165.607 -79.0031L-163.422 -82.4902L-167.559 -85.889L-169.708 -82.5707L-165.607 -79.0031ZM-171.249 -83.9113L-169.132 -87.181L-173.214 -90.5347L-175.294 -87.4303L-171.249 -83.9113ZM-176.822 -88.7597L-174.774 -91.8162L-178.796 -95.1207L-180.805 -92.2256L-176.822 -88.7597ZM-182.329 -93.5516L-180.353 -96.3996L-184.297 -99.6401L-186.235 -96.9492L-182.329 -93.5516ZM-187.76 -98.2761L-185.856 -100.921L-189.733 -104.106L-191.598 -101.615L-187.76 -98.2761ZM-193.111 -102.932L-191.281 -105.378L-195.085 -108.503L-196.874 -106.206L-193.111 -102.932ZM-198.376 -107.512L-196.621 -109.765L-200.336 -112.817L-202.049 -110.708L-198.376 -107.512ZM-203.55 -112.013L-201.872 -114.079L-205.37 -116.953C-205.936 -116.447 -206.469 -115.902 -206.966 -115.317L-207.127 -115.126L-203.55 -112.013ZM-208.623 -116.427L-208.619 -116.431C-208.082 -117.065 -207.506 -117.657 -206.896 -118.207L-209.833 -120.62C-210.546 -120.216 -211.23 -119.763 -211.879 -119.26L-208.623 -116.427ZM-213.375 -120.561C-212.748 -121.054 -212.092 -121.506 -211.411 -121.916L-213.449 -123.59C-213.466 -123.605 -213.483 -123.619 -213.501 -123.633C-213.528 -123.655 -213.556 -123.678 -213.583 -123.7C-214.406 -123.462 -215.204 -123.167 -215.97 -122.82L-213.375 -120.561ZM-217.529 -124.176C-216.882 -124.497 -216.213 -124.784 -215.526 -125.034C-216.027 -125.325 -216.543 -125.589 -217.074 -125.825C-217.777 -125.792 -218.478 -125.719 -219.172 -125.605L-217.529 -124.176ZM-591.869 256.073C-592.113 253.441 -591.563 250.872 -590.299 248.573L-576.992 259.506L-582.998 265.946C-583.439 266.419 -583.849 266.909 -584.225 267.414L-586.399 265.722C-589.575 263.247 -591.521 259.816 -591.869 256.073ZM-581.401 267.117L-575.47 260.757L-562.237 271.629L-569.012 279.255L-582.651 268.64C-582.273 268.114 -581.857 267.605 -581.401 267.117ZM-567.444 280.475L-560.703 272.889L-547.909 283.4L-554.184 290.796L-567.444 280.475ZM-552.614 292.018L-546.372 284.662L-533.982 294.842L-539.793 301.996L-552.614 292.018ZM-538.22 303.221L-532.442 296.107L-520.425 305.979L-525.804 312.885L-538.22 303.221ZM-524.231 314.109L-518.885 307.245L-507.209 316.837L-512.184 323.486L-524.231 314.109ZM-510.609 324.711L-505.666 318.105L-494.312 327.433L-498.909 333.817L-510.609 324.711ZM-497.328 335.048L-492.762 328.707L-481.702 337.793L-485.945 343.908L-497.328 335.048ZM-484.359 345.142L-480.146 339.072L-469.365 347.929L-473.276 353.768L-484.359 345.142ZM-471.68 355.011L-467.798 349.216L-457.272 357.865L-460.871 363.424L-471.68 355.011ZM-459.274 364.666L-455.704 359.152L-445.416 367.605L-448.721 372.88L-459.274 364.666ZM-447.123 374.124L-443.846 368.895L-433.779 377.166L-436.806 382.154L-447.123 374.124ZM-175.211 585.759L-198.025 568.003C-192.044 569.208 -185.517 567.619 -181.068 563.321L177.858 216.839C181.209 213.6 182.904 209.221 182.493 204.833C182.127 200.894 180.121 197.24 176.85 194.553L-149.258 -73.3679L-147.204 -76.8571L205.602 197.74C208.787 200.214 210.723 203.638 211.072 207.389L211.081 207.388C211.452 211.302 210.044 215.096 207.142 218.054L-152.397 584.385C-158.275 590.367 -168.498 590.982 -175.211 585.759ZM-148.819 -78.1145L-150.845 -74.6723L-155.068 -78.1412L-153.074 -81.426L-148.819 -78.1145ZM-154.676 -82.6727L-156.641 -79.4341L-160.813 -82.8611L-158.88 -85.9453L-154.676 -82.6727ZM-160.478 -87.1892L-162.382 -84.1506L-166.496 -87.5308L-164.627 -90.4181L-160.478 -87.1892ZM-166.229 -91.6649L-168.069 -88.8227L-172.127 -92.1569L-170.323 -94.8511L-166.229 -91.6649ZM-171.912 -96.0882L-173.687 -93.4385L-177.684 -96.7224L-175.946 -99.2276L-171.912 -96.0882ZM-177.533 -100.463L-179.241 -98.0014L-183.159 -101.22L-181.488 -103.541L-177.533 -100.463ZM-183.078 -104.779L-184.718 -102.501L-188.568 -105.664L-186.966 -107.805L-183.078 -104.779ZM-188.545 -109.034L-190.115 -106.935L-193.89 -110.037L-192.691 -111.577C-192.58 -111.719 -192.468 -111.859 -192.353 -111.998L-188.545 -109.034ZM-194.391 -112.629L-195.427 -111.299L-199.081 -114.301C-198.549 -114.874 -197.979 -115.409 -197.374 -115.906L-193.917 -113.215C-194.078 -113.023 -194.237 -112.827 -194.391 -112.629ZM-198.947 -117.13C-199.532 -116.638 -200.087 -116.113 -200.609 -115.557L-203.814 -118.19C-203.187 -118.632 -202.531 -119.033 -201.853 -119.392L-198.947 -117.13ZM-203.489 -120.665C-204.133 -120.298 -204.757 -119.895 -205.357 -119.457L-207.915 -121.559C-207.176 -121.868 -206.416 -122.129 -205.641 -122.34C-205.623 -122.326 -205.604 -122.312 -205.586 -122.297L-203.489 -120.665ZM-207.663 -123.67C-208.305 -123.446 -208.936 -123.19 -209.552 -122.904L-211.162 -124.227C-210.753 -124.287 -210.34 -124.335 -209.923 -124.369C-209.674 -124.389 -209.426 -124.405 -209.178 -124.415C-208.662 -124.193 -208.157 -123.945 -207.663 -123.67ZM-583.679 270.298C-584.915 272.63 -585.445 275.219 -585.201 277.858C-584.824 281.87 -582.711 285.504 -579.226 288.076L-577.706 289.2C-577.338 288.68 -576.937 288.174 -576.503 287.685L-570.304 280.708L-583.679 270.298ZM-568.735 281.929L-574.872 288.836C-575.317 289.336 -575.724 289.856 -576.092 290.394L-562.422 300.504L-555.441 292.277L-568.735 281.929ZM-553.87 293.499L-560.82 301.688L-547.527 311.519L-541.017 303.503L-553.87 293.499ZM-539.443 304.728L-545.923 312.706L-533.068 322.212L-526.996 314.416L-539.443 304.728ZM-525.423 315.64L-531.466 323.398L-519.011 332.609L-513.347 325.039L-525.423 315.64ZM-511.772 326.265L-517.407 333.795L-505.327 342.729L-500.044 335.393L-511.772 326.265ZM-498.463 336.624L-503.717 343.92L-491.979 352.601L-487.053 345.504L-498.463 336.624ZM-485.467 346.739L-490.364 353.795L-478.95 362.236L-474.359 355.384L-485.467 346.739ZM-472.762 356.627L-477.325 363.438L-466.205 371.662L-461.929 365.059L-472.762 356.627ZM-460.333 366.301L-464.581 372.863L-453.735 380.884L-449.756 374.533L-460.333 366.301ZM-448.158 375.777L-452.111 382.085L-441.519 389.918L-437.82 383.824L-448.158 375.777ZM-436.218 385.07L-439.892 391.122L-429.544 398.775L-426.108 392.939L-436.218 385.07ZM-170.664 590.232L-145.754 608.654C-138.669 613.892 -128.114 613.018 -122.218 606.704L237.933 220.524C240.744 217.51 242.095 213.698 241.733 209.791L241.725 209.8C241.348 205.78 239.236 202.154 235.749 199.574L-144.421 -81.5847L-146.211 -78.5434L206.974 196.348C210.555 199.14 212.756 203.003 213.145 207.237C213.552 211.658 211.972 215.933 208.699 219.27L-150.838 585.61C-155.893 590.758 -163.824 592.378 -170.664 590.232ZM-147.826 -79.8008L-146.062 -82.7985L-150.326 -85.9524L-152.06 -83.096L-147.826 -79.8008ZM-153.662 -84.3427L-151.954 -87.1562L-156.169 -90.2731L-157.845 -87.5982L-153.662 -84.3427ZM-159.443 -88.8421L-157.793 -91.4747L-161.952 -94.55L-163.568 -92.0531L-159.443 -88.8421ZM-165.17 -93.2999L-163.581 -95.7549L-167.684 -98.7895L-169.24 -96.4673L-165.17 -93.2999ZM-170.829 -97.7045L-169.301 -99.9854L-173.344 -102.976L-174.838 -100.824L-170.829 -97.7045ZM-176.425 -102.059L-174.96 -104.17L-178.924 -107.102L-180.353 -105.117L-176.425 -102.059ZM-181.943 -106.354L-180.542 -108.299L-184.364 -111.125C-184.782 -110.671 -185.177 -110.195 -185.548 -109.7L-185.803 -109.359L-181.943 -106.354ZM-187.382 -110.588L-187.281 -110.723C-186.868 -111.274 -186.428 -111.802 -185.961 -112.307L-189.382 -114.836C-189.959 -114.398 -190.509 -113.927 -191.028 -113.426L-187.382 -110.588ZM-192.589 -114.64C-192.085 -115.131 -191.554 -115.595 -190.999 -116.032L-193.878 -118.161C-194.524 -117.841 -195.147 -117.486 -195.746 -117.097L-192.589 -114.64ZM-197.347 -118.344C-196.78 -118.731 -196.19 -119.09 -195.581 -119.421L-197.702 -120.989C-198.435 -120.801 -199.155 -120.57 -199.859 -120.299L-197.347 -118.344ZM-201.57 -121.631C-200.99 -121.886 -200.398 -122.115 -199.796 -122.317C-200.267 -122.57 -200.751 -122.801 -201.244 -123.01C-201.877 -122.987 -202.508 -122.933 -203.135 -122.849L-201.57 -121.631ZM-578.542 299.644C-578.784 297.021 -578.275 294.424 -577.084 292.071L-563.679 301.985L-570.006 309.44C-570.44 309.952 -570.841 310.481 -571.207 311.026L-572.042 310.438C-575.777 307.803 -578.145 303.868 -578.542 299.644ZM-568.343 310.554L-562.077 303.17L-548.751 313.026L-555.891 321.818L-569.56 312.187C-569.194 311.624 -568.788 311.078 -568.343 310.554ZM-554.258 322.969L-547.146 314.213L-534.26 323.743L-540.957 332.341L-554.258 322.969ZM-539.326 333.49L-532.657 324.928L-520.172 334.162L-526.455 342.558L-539.326 333.49ZM-524.824 343.708L-518.569 335.348L-506.46 344.303L-512.357 352.492L-524.824 343.708ZM-510.72 353.645L-504.85 345.494L-493.085 354.195L-498.621 362.171L-510.72 353.645ZM-496.98 363.327L-491.471 355.389L-480.03 363.85L-485.227 371.608L-496.98 363.327ZM-483.577 372.771L-478.406 365.051L-467.261 373.294L-472.14 380.829L-483.577 372.771ZM-470.491 381.991L-465.638 374.494L-454.768 382.533L-459.348 389.842L-470.491 381.991ZM-457.699 391.005L-453.144 383.735L-442.53 391.584L-446.828 398.664L-457.699 391.005ZM-445.176 399.828L-440.903 392.788L-430.534 400.456L-434.565 407.305L-445.176 399.828ZM-432.903 408.475L-428.896 401.668L-153.515 605.333L-432.903 408.475ZM-116.296 631.557L-144.442 611.726C-136.672 615.704 -126.544 614.247 -120.626 607.9L239.524 221.72C242.688 218.328 244.202 214.044 243.799 209.648C243.378 205.13 240.998 201.048 237.08 198.154L-143.432 -83.2638L-141.872 -85.9144L265.904 201.399C269.638 204.033 272.005 207.96 272.395 212.193L272.404 212.192C272.764 216.091 271.464 219.931 268.734 223.001L-92.0306 629.022C-97.9417 635.684 -108.829 636.818 -116.296 631.557ZM-143.537 -87.0876L-145.073 -84.4776L-149.317 -87.616L-147.81 -90.0983L-143.537 -87.0876ZM-149.462 -91.2623L-150.944 -88.8198L-155.137 -91.9203L-153.685 -94.2377L-149.462 -91.2623ZM-155.334 -95.3998L-156.761 -93.1219L-160.896 -96.18L-159.501 -98.3355L-155.334 -95.3998ZM-161.155 -99.5012L-162.526 -97.3849L-166.604 -100.401L-165.267 -102.398L-161.155 -99.5012ZM-166.91 -103.556L-168.221 -101.597L-172.239 -104.569L-171.273 -105.96C-171.169 -106.11 -171.062 -106.259 -170.954 -106.405L-166.91 -103.556ZM-173.044 -106.93L-173.854 -105.763L-177.767 -108.657C-177.326 -109.201 -176.855 -109.72 -176.357 -110.212L-172.591 -107.558C-172.745 -107.352 -172.897 -107.143 -173.044 -106.93ZM-177.996 -111.367C-178.481 -110.883 -178.942 -110.377 -179.377 -109.847L-182.957 -112.496C-182.452 -112.938 -181.921 -113.354 -181.368 -113.743L-177.996 -111.367ZM-183.036 -114.918C-183.565 -114.529 -184.074 -114.117 -184.561 -113.682L-187.677 -115.987C-187.103 -116.33 -186.508 -116.646 -185.893 -116.931L-183.036 -114.918ZM-187.659 -118.176C-188.235 -117.878 -188.794 -117.557 -189.334 -117.212L-191.807 -119.041C-191.141 -119.279 -190.456 -119.484 -189.756 -119.653L-187.659 -118.176ZM-191.936 -120.979C-192.502 -120.797 -193.057 -120.592 -193.6 -120.367L-195.101 -121.477C-194.505 -121.548 -193.905 -121.593 -193.304 -121.611C-192.841 -121.42 -192.384 -121.21 -191.936 -120.979ZM-570.515 313.885C-571.65 316.246 -572.132 318.834 -571.892 321.431C-571.473 325.942 -568.919 330.078 -564.868 332.8L-564.73 332.893C-564.357 332.307 -563.947 331.737 -563.5 331.186L-557.116 323.326L-570.515 313.885ZM-555.482 324.477L-561.814 332.273C-562.27 332.834 -562.684 333.418 -563.054 334.02L-549.414 343.199L-542.149 333.871L-555.482 324.477ZM-540.518 335.02L-547.756 344.314L-534.462 353.259L-527.617 344.11L-540.518 335.02ZM-525.985 345.259L-532.806 354.374L-519.944 363.028L-513.489 354.064L-525.985 345.259ZM-511.852 355.217L-518.282 364.146L-505.814 372.536L-499.725 363.762L-511.852 355.217ZM-498.084 364.918L-504.149 373.656L-492.052 381.796L-486.305 373.217L-498.084 364.918ZM-484.655 374.38L-490.378 382.923L-478.618 390.835L-473.193 382.456L-484.655 374.38ZM-471.544 383.617L-476.946 391.96L-465.5 399.662L-460.377 391.485L-471.544 383.617ZM-458.728 392.647L-463.828 400.787L-452.672 408.293L-447.834 400.322L-458.728 392.647ZM-446.182 401.486L-450.998 409.42L-440.119 416.74L-435.55 408.978L-446.182 401.486ZM-433.888 410.149L-438.435 417.873L-86.8383 654.453C-78.9907 659.728 -67.7807 658.335 -61.8509 651.35L299.527 225.479C302.175 222.36 303.435 218.492 303.074 214.593L303.067 214.603C302.648 210.101 300.093 205.956 296.051 203.233L-139.545 -89.8675L-140.894 -87.575L267.195 199.959C271.379 202.905 274.027 207.311 274.469 212.049C274.878 216.42 273.413 220.723 270.357 224.16L-90.4075 630.182C-97.0279 637.632 -109.225 638.899 -117.585 633.006L-433.888 410.149ZM-142.559 -88.7482L-141.232 -91.0029L-145.513 -93.8832L-146.811 -91.7439L-142.559 -88.7482ZM-148.463 -92.9079L-147.187 -95.0099L-151.418 -97.8564L-152.664 -95.8676L-148.463 -92.9079ZM-154.313 -97.0297L-153.09 -98.9817L-157.264 -101.79L-158.456 -99.9489L-154.313 -97.0297ZM-160.111 -101.115L-158.942 -102.919L-162.98 -105.636C-163.391 -105.138 -163.778 -104.619 -164.139 -104.082L-164.198 -103.994L-160.111 -101.115ZM-165.84 -105.151C-165.464 -105.704 -165.063 -106.238 -164.637 -106.752L-168.36 -109.257C-168.839 -108.826 -169.297 -108.372 -169.732 -107.894L-165.84 -105.151ZM-171.363 -109.043C-170.939 -109.51 -170.495 -109.956 -170.033 -110.382L-173.364 -112.623C-173.889 -112.279 -174.396 -111.912 -174.882 -111.522L-171.363 -109.043ZM-176.539 -112.69C-176.074 -113.074 -175.591 -113.44 -175.092 -113.786L-177.91 -115.682C-178.49 -115.429 -179.054 -115.15 -179.601 -114.847L-176.539 -112.69ZM-181.32 -116.058C-180.808 -116.364 -180.282 -116.649 -179.742 -116.915L-181.827 -118.318C-182.485 -118.167 -183.13 -117.987 -183.76 -117.778L-181.32 -116.058ZM-185.63 -119.095C-185.125 -119.294 -184.609 -119.476 -184.085 -119.64C-184.519 -119.854 -184.96 -120.051 -185.406 -120.23C-185.963 -120.215 -186.522 -120.178 -187.081 -120.117L-185.63 -119.095ZM-565.25 343.228C-565.488 340.657 -565.038 338.09 -563.965 335.731L-550.601 344.723L-556.995 352.932C-557.46 353.53 -557.884 354.149 -558.265 354.786C-562.292 351.971 -564.822 347.794 -565.25 343.228ZM-555.294 353.992L-548.943 345.839L-535.619 354.805L-542.981 364.644L-556.573 355.891C-556.195 355.236 -555.768 354.602 -555.294 353.992ZM-541.3 365.726L-533.962 355.919L-521.071 364.593L-528.037 374.267L-541.3 365.726ZM-526.352 375.352L-519.409 365.711L-506.913 374.119L-513.509 383.623L-526.352 375.352ZM-511.821 384.71L-505.248 375.24L-493.125 383.397L-499.374 392.725L-511.821 384.71ZM-497.676 393.818L-491.45 384.524L-479.665 392.453L-485.589 401.602L-497.676 393.818ZM-483.895 402.693L-477.994 393.578L-466.524 401.296L-472.141 410.262L-483.895 402.693ZM-470.447 411.353L-464.851 402.421L-453.673 409.942L-459.002 418.723L-470.447 411.353ZM-457.307 419.814L-451.998 411.069L-441.098 418.403L-446.156 426.995L-457.307 419.814ZM-444.451 428.093L-439.414 419.536L-88.0765 655.937C-79.3191 661.834 -66.8033 660.276 -60.187 652.472L301.19 226.601C304.147 223.117 305.555 218.796 305.149 214.449C304.683 209.417 301.821 204.796 297.309 201.755L-138.568 -91.5273L-137.412 -93.4913L326.206 205.058C330.566 207.869 333.316 212.222 333.765 217C334.125 220.899 332.905 224.787 330.328 227.956L-31.662 673.676C-37.6081 681.001 -49.1504 682.655 -57.3705 677.355L-444.451 428.093ZM-139.12 -94.5914L-140.255 -92.6628L-144.514 -95.5285L-143.407 -97.3522L-139.12 -94.5914ZM-145.103 -98.4442L-146.189 -96.6552L-150.396 -99.4864L-149.871 -100.325C-149.693 -100.608 -149.509 -100.886 -149.319 -101.159L-145.103 -98.4442ZM-151.68 -101.233L-152.069 -100.612L-156.176 -103.375C-155.802 -103.871 -155.405 -104.349 -154.986 -104.808L-151.005 -102.245C-151.239 -101.915 -151.464 -101.577 -151.68 -101.233ZM-156.678 -105.898C-157.086 -105.447 -157.474 -104.98 -157.843 -104.497L-161.67 -107.072C-161.25 -107.488 -160.812 -107.887 -160.356 -108.266L-156.678 -105.898ZM-162.069 -109.37C-162.507 -108.993 -162.928 -108.6 -163.333 -108.191L-166.8 -110.524C-166.333 -110.865 -165.852 -111.186 -165.358 -111.488L-162.069 -109.37ZM-167.137 -112.633C-167.604 -112.328 -168.059 -112.007 -168.501 -111.668L-171.517 -113.698C-171.002 -113.963 -170.472 -114.207 -169.929 -114.431L-167.137 -112.633ZM-171.836 -115.659C-172.338 -115.423 -172.829 -115.171 -173.307 -114.902L-175.691 -116.506C-175.101 -116.688 -174.498 -116.846 -173.885 -116.979L-171.836 -115.659ZM-176.213 -118.298C-176.697 -118.153 -177.173 -117.993 -177.641 -117.818L-179.047 -118.764C-178.528 -118.813 -178.009 -118.843 -177.491 -118.855C-177.058 -118.684 -176.632 -118.499 -176.213 -118.298ZM-557.437 357.617C-558.438 359.963 -558.851 362.496 -558.619 365.017C-558.193 369.603 -555.73 373.775 -551.798 376.669C-551.409 375.989 -550.972 375.325 -550.49 374.678L-544.133 366.184L-557.437 357.617ZM-542.453 367.266L-548.766 375.703C-549.269 376.377 -549.716 377.073 -550.106 377.787L-536.585 386.137L-529.16 375.826L-542.453 367.266ZM-527.475 376.911L-534.878 387.191L-521.654 395.357L-514.604 385.2L-527.475 376.911ZM-512.916 386.287L-519.944 396.413L-507.141 404.319L-500.442 394.319L-512.916 386.287ZM-498.744 395.412L-505.422 405.381L-493.001 413.051L-486.632 403.213L-498.744 395.412ZM-484.938 404.303L-491.287 414.11L-479.221 421.561L-473.16 411.888L-484.938 404.303ZM-471.466 412.979L-477.506 422.62L-465.768 429.869L-459.998 420.363L-471.466 412.979ZM-458.303 421.455L-464.052 430.928L-452.625 437.985L-447.13 428.65L-458.303 421.455ZM-445.425 429.748L-450.901 439.05L-27.9121 700.259C-23.7443 702.828 -18.7042 703.806 -13.7053 703C-8.71544 702.196 -4.37082 699.709 -1.47456 695.994L361.129 230.432C363.635 227.215 364.823 223.297 364.455 219.408L364.462 219.398C363.992 214.334 361.036 209.773 356.361 206.883L-135.45 -96.8202C-135.499 -96.7395 -135.547 -96.6585 -135.595 -96.5771L-136.437 -95.1461L327.424 203.56C332.28 206.685 335.34 211.523 335.838 216.848C336.241 221.179 334.882 225.511 332.015 229.042L-29.9766 674.754C-36.599 682.905 -49.4345 684.747 -58.5882 678.853L-445.425 429.748ZM-138.146 -96.2461L-137.444 -97.4391C-137.355 -97.5888 -137.266 -97.7375 -137.174 -97.8851L-141.351 -100.464C-141.723 -99.9877 -142.074 -99.4953 -142.403 -98.9878L-138.146 -96.2461ZM-144.093 -100.076C-143.766 -100.57 -143.42 -101.051 -143.056 -101.517L-146.979 -103.94C-147.383 -103.537 -147.771 -103.118 -148.142 -102.683L-144.093 -100.076ZM-149.826 -103.768C-149.466 -104.194 -149.09 -104.605 -148.7 -105.002L-152.335 -107.247C-152.77 -106.912 -153.19 -106.561 -153.594 -106.194L-149.826 -103.768ZM-155.301 -107.294C-154.913 -107.654 -154.512 -108.001 -154.098 -108.336L-157.356 -110.348C-157.824 -110.08 -158.279 -109.795 -158.721 -109.496L-155.301 -107.294ZM-160.474 -110.625C-160.057 -110.923 -159.63 -111.209 -159.191 -111.481L-161.937 -113.177C-162.444 -112.979 -162.943 -112.763 -163.433 -112.53L-160.474 -110.625ZM-165.285 -113.723C-164.834 -113.961 -164.375 -114.184 -163.908 -114.394L-165.935 -115.645C-166.509 -115.528 -167.074 -115.39 -167.628 -115.231L-165.285 -113.723ZM-169.671 -116.547C-169.239 -116.7 -168.799 -116.842 -168.353 -116.971C-168.748 -117.154 -169.149 -117.324 -169.554 -117.48C-170.038 -117.472 -170.523 -117.448 -171.008 -117.408L-169.671 -116.547ZM-551.987 386.807C-552.221 384.295 -551.856 381.832 -550.925 379.52L-537.7 387.687L-543.993 396.425C-544.487 397.114 -544.931 397.822 -545.323 398.546C-549.166 395.58 -551.563 391.409 -551.987 386.807ZM-542.245 397.422L-535.994 388.741L-522.742 396.925L-530.208 407.682L-543.334 399.895C-543.438 399.833 -543.542 399.77 -543.644 399.707C-543.243 398.924 -542.776 398.161 -542.245 397.422ZM-528.477 408.709L-521.032 397.981L-508.203 405.903L-515.314 416.519L-528.477 408.709ZM-513.574 417.551L-506.483 406.965L-494.037 414.651L-500.815 425.12L-513.574 417.551ZM-499.082 426.149L-492.323 415.71L-480.232 423.177L-486.698 433.496L-499.082 426.149ZM-484.965 434.524L-478.518 424.235L-466.757 431.499L-472.928 441.665L-484.965 434.524ZM-471.194 442.694L-465.041 432.558L-453.592 439.628L-459.486 449.64L-471.194 442.694ZM-457.744 450.674L-451.868 440.693L-29.0991 701.778C-24.4753 704.633 -18.8762 705.713 -13.3358 704.821C-7.7874 703.92 -2.97428 701.158 0.234668 697.045L362.839 231.483C365.617 227.913 366.929 223.569 366.527 219.247C366.005 213.628 362.729 208.568 357.539 205.364L-134.38 -98.4176C-134.055 -98.8586 -133.713 -99.287 -133.355 -99.7024L386.508 208.717C391.508 211.686 394.669 216.454 395.161 221.805L395.153 221.814C395.53 225.76 394.405 229.604 391.931 232.909L28.7141 718.32C25.8033 722.194 21.3887 724.837 16.2571 725.748C11.1256 726.659 5.90042 725.743 1.54635 723.162L-457.744 450.674ZM-135.095 -100.735C-135.443 -100.327 -135.777 -99.9074 -136.095 -99.4768L-140.085 -101.941C-139.73 -102.319 -139.36 -102.685 -138.977 -103.038L-135.095 -100.735ZM-140.731 -104.078C-141.098 -103.729 -141.454 -103.369 -141.797 -102.998L-145.498 -105.283C-145.111 -105.602 -144.714 -105.907 -144.306 -106.199L-140.731 -104.078ZM-146.115 -107.272C-146.501 -106.98 -146.878 -106.677 -147.245 -106.362L-150.617 -108.445C-150.203 -108.705 -149.777 -108.953 -149.342 -109.187L-146.115 -107.272ZM-151.239 -110.312C-151.644 -110.074 -152.041 -109.824 -152.429 -109.564L-155.347 -111.365C-154.894 -111.567 -154.432 -111.754 -153.961 -111.927L-151.239 -110.312ZM-156.003 -113.139C-156.432 -112.955 -156.854 -112.759 -157.269 -112.552L-159.544 -113.957C-159.03 -114.094 -158.51 -114.213 -157.985 -114.315L-156.003 -113.139ZM-160.474 -115.636C-160.875 -115.523 -161.273 -115.401 -161.668 -115.269L-162.94 -116.055C-162.499 -116.086 -162.057 -116.103 -161.617 -116.108C-161.231 -115.962 -160.85 -115.805 -160.474 -115.636ZM-544.423 401.469C-545.275 403.741 -545.602 406.147 -545.375 408.59C-544.946 413.207 -542.608 417.387 -538.845 420.418C-538.448 419.65 -537.995 418.9 -537.488 418.171L-531.299 409.255L-544.423 401.469ZM-529.569 410.282L-535.724 419.15C-536.279 419.95 -536.762 420.778 -537.171 421.628C-536.84 421.843 -536.5 422.049 -536.151 422.248L-523.855 429.268L-516.378 418.107L-529.569 410.282ZM-514.639 419.139L-522.096 430.272L-508.994 437.752L-501.854 426.725L-514.639 419.139ZM-500.121 427.753L-507.242 438.753L-494.536 446.007L-487.712 435.115L-500.121 427.753ZM-485.979 436.143L-492.785 447.006L-480.445 454.051L-473.919 443.298L-485.979 436.143ZM-472.185 444.327L-478.694 455.051L-466.702 461.898L-460.455 451.286L-472.185 444.327ZM-458.713 452.32L-464.942 462.902L31.0221 746.055C40.3939 751.405 52.8953 748.967 58.9086 740.621L422.739 235.369C425.152 232.021 426.237 228.157 425.868 224.193L425.869 224.201C425.345 218.566 421.988 213.589 416.654 210.542L-130.95 -102.092C-131.318 -101.778 -131.676 -101.453 -132.021 -101.117L387.637 207.179C393.181 210.466 396.663 215.742 397.217 221.654C397.616 226.026 396.392 230.269 393.655 233.934L30.4277 719.337C27.226 723.631 22.3247 726.552 16.6538 727.566C10.9818 728.571 5.19893 727.561 0.389973 724.702L-458.713 452.32ZM-133.777 -102.159C-133.446 -102.489 -133.104 -102.81 -132.753 -103.122L-136.3 -105.147C-136.689 -104.886 -137.069 -104.614 -137.438 -104.331L-133.777 -102.159ZM-139.226 -105.391C-138.876 -105.671 -138.519 -105.943 -138.152 -106.205L-141.315 -108.01C-141.726 -107.802 -142.131 -107.582 -142.528 -107.35L-139.226 -105.391ZM-144.397 -108.459C-144.028 -108.691 -143.653 -108.914 -143.272 -109.127L-145.969 -110.667C-146.413 -110.513 -146.849 -110.347 -147.278 -110.168L-144.397 -108.459ZM-149.273 -111.352C-148.884 -111.536 -148.488 -111.711 -148.087 -111.876L-150.045 -112.994C-150.363 -112.936 -150.681 -112.87 -150.998 -112.799C-151.169 -112.76 -151.339 -112.72 -151.508 -112.678L-149.273 -111.352ZM-153.719 -113.99C-153.356 -114.106 -152.989 -114.214 -152.618 -114.314C-152.966 -114.465 -153.318 -114.606 -153.673 -114.738C-154.088 -114.736 -154.501 -114.723 -154.914 -114.699L-153.719 -113.99ZM-538.76 430.39C-538.982 428.014 -538.692 425.667 -537.918 423.437C-537.707 423.567 -537.493 423.694 -537.276 423.817L-524.927 430.868L-530.983 439.909C-531.501 440.685 -531.96 441.482 -532.358 442.298C-536.015 439.193 -538.336 434.949 -538.76 430.39ZM-529.195 440.869L-523.168 431.872L-510.039 439.367L-517.524 450.927L-528.975 444.627C-529.571 444.298 -530.145 443.945 -530.696 443.567C-530.279 442.641 -529.778 441.739 -529.195 440.869ZM-515.755 451.901L-508.288 440.367L-495.556 447.635L-502.722 459.072L-515.755 451.901ZM-500.954 460.045L-493.805 448.635L-481.442 455.693L-488.307 467.003L-500.954 460.045ZM-486.539 467.976L-479.69 456.693L-467.676 463.552L-474.258 474.734L-486.539 467.976ZM-472.482 475.711L-465.916 464.557L29.8964 747.617C40.2313 753.509 54.027 750.825 60.6563 741.618L424.487 236.366C427.155 232.668 428.35 228.412 427.941 224.041C427.362 217.826 423.656 212.337 417.77 208.974L-129.32 -103.36C-128.977 -103.603 -128.626 -103.837 -128.269 -104.063L446.79 212.361C452.377 215.437 456.032 220.759 456.576 226.598C456.945 230.562 455.892 234.456 453.541 237.846L89.0883 762.948C86.1782 767.151 81.5847 770.095 76.1811 771.235C70.7865 772.373 65.2084 771.571 60.4818 768.967L-472.482 475.711ZM-130.183 -105.116C-130.517 -104.889 -130.845 -104.656 -131.167 -104.415L-134.432 -106.279C-134.069 -106.476 -133.7 -106.665 -133.324 -106.844L-130.183 -105.116ZM-135.336 -107.951C-135.681 -107.767 -136.021 -107.575 -136.356 -107.377L-139.153 -108.974C-138.762 -109.125 -138.366 -109.267 -137.967 -109.399L-135.336 -107.951ZM-140.158 -110.605C-140.517 -110.463 -140.872 -110.313 -141.223 -110.156L-143.408 -111.403C-142.971 -111.504 -142.531 -111.592 -142.091 -111.668L-140.158 -110.605ZM-144.754 -112.991C-145.077 -112.907 -145.397 -112.816 -145.715 -112.72L-146.844 -113.364C-146.489 -113.381 -146.135 -113.39 -145.781 -113.391C-145.436 -113.267 -145.094 -113.134 -144.754 -112.991ZM-531.403 445.402C-532.106 447.59 -532.361 449.88 -532.146 452.189C-531.723 456.762 -529.455 461.006 -525.868 464.175C-525.466 463.315 -525 462.473 -524.469 461.654L-518.561 452.528L-530.062 446.2C-530.521 445.948 -530.968 445.681 -531.403 445.402ZM-516.792 453.502L-522.675 462.588C-523.28 463.525 -523.795 464.495 -524.217 465.491C-523.45 466.041 -522.636 466.547 -521.78 467.003L-511.208 472.617L-503.733 460.687L-516.792 453.502ZM-501.965 461.66L-509.424 473.565L-496.466 480.446L-489.295 468.631L-501.965 461.66ZM-487.527 469.604L-494.683 481.394L-482.109 488.071L-475.223 476.374L-487.527 469.604ZM-473.448 477.351L-480.318 489.022L89.9596 791.876C94.8702 794.476 100.625 795.225 106.162 793.98C111.707 792.733 116.371 789.633 119.303 785.263L484.36 240.321C486.66 236.887 487.681 232.972 487.311 229L487.301 228.993C486.734 222.86 482.855 217.324 476.935 214.179L-125.306 -105.655C-125.651 -105.499 -125.991 -105.336 -126.326 -105.165L447.886 210.787C454.033 214.161 458.05 220.019 458.648 226.438C459.056 230.801 457.901 235.077 455.311 238.807L90.8574 763.901C87.6485 768.534 82.5979 771.768 76.6561 773.019C70.7052 774.27 64.5716 773.391 59.3833 770.525L-473.448 477.351ZM-128.322 -106.264C-128.015 -106.435 -127.705 -106.601 -127.39 -106.762L-130 -108.148C-130.365 -108.034 -130.726 -107.912 -131.083 -107.783L-128.322 -106.264ZM-133.223 -108.96C-132.905 -109.095 -132.584 -109.224 -132.259 -109.348L-134.123 -110.338C-134.524 -110.272 -134.923 -110.198 -135.319 -110.114L-133.223 -108.96ZM-137.723 -111.436C-137.441 -111.518 -137.157 -111.595 -136.872 -111.667C-137.185 -111.795 -137.5 -111.916 -137.818 -112.029C-138.135 -112.03 -138.454 -112.025 -138.772 -112.014L-137.723 -111.436ZM-525.551 473.983C-525.76 471.739 -525.534 469.51 -524.894 467.368C-524.243 467.803 -523.563 468.209 -522.857 468.584L-512.22 474.233L-517.964 483.4C-518.506 484.263 -518.979 485.15 -519.383 486.058C-522.906 482.833 -525.122 478.579 -525.551 473.983ZM-516.155 484.308L-510.436 475.18L-497.454 482.074L-504.903 494.346L-514.605 489.366C-515.721 488.793 -516.768 488.14 -517.738 487.417C-517.313 486.35 -516.784 485.311 -516.155 484.308ZM-503.104 495.269L-495.671 483.022L-483.074 489.711L-490.234 501.874L-503.104 495.269ZM-488.429 502.801L-481.284 490.662L88.8839 793.465C94.2652 796.325 100.575 797.143 106.656 795.77C112.738 794.405 117.858 791.006 121.071 786.208L486.128 241.266C488.647 237.494 489.772 233.197 489.365 228.842C488.742 222.121 484.492 216.051 477.993 212.6L-122.994 -106.568C-122.672 -106.678 -122.346 -106.781 -122.018 -106.879L507.09 216.004C513.343 219.218 517.436 224.969 518.035 231.387L518.027 231.396C518.39 235.377 517.398 239.314 515.151 242.791L149.481 807.582C143.419 816.947 129.931 820.173 119.418 814.78L-488.429 502.801ZM-124.358 -108.08C-124.648 -107.974 -124.934 -107.864 -125.218 -107.75L-127.273 -108.841C-126.918 -108.911 -126.562 -108.973 -126.205 -109.028L-124.358 -108.08ZM-129.515 -110.23C-129.597 -110.208 -129.68 -110.186 -129.763 -110.163L-130.694 -110.658C-130.421 -110.665 -130.147 -110.667 -129.873 -110.665C-129.592 -110.566 -129.313 -110.462 -129.036 -110.353C-129.196 -110.313 -129.355 -110.272 -129.515 -110.23ZM-518.38 489.322C-518.962 491.42 -519.159 493.595 -518.955 495.776C-518.528 500.394 -516.354 504.659 -512.889 507.937C-512.486 506.984 -512.008 506.052 -511.458 505.146L-505.886 495.967L-515.643 490.959C-516.604 490.465 -517.517 489.918 -518.38 489.322ZM-504.088 496.89L-509.635 506.027C-510.283 507.096 -510.821 508.204 -511.247 509.341C-510.08 510.242 -508.801 511.043 -507.422 511.727L-498.61 516.103L-491.195 503.507L-504.088 496.89ZM-489.391 504.434L-496.792 517.007L148.876 837.683C154.16 840.307 160.267 840.933 166.085 839.466C171.904 837.999 176.727 834.593 179.677 829.891L545.961 245.258C548.157 241.746 549.126 237.787 548.761 233.79C548.139 227.078 543.829 221.105 537.235 217.83L-118.252 -107.71C-118.565 -107.664 -118.878 -107.613 -119.191 -107.556L508.119 214.412C514.969 217.93 519.444 224.222 520.091 231.245C520.489 235.601 519.412 239.91 516.944 243.717L151.274 808.508C144.636 818.755 129.873 822.298 118.373 816.39L-489.391 504.434ZM-121.782 -108.886L-122.646 -109.329C-122.422 -109.332 -122.199 -109.333 -121.976 -109.331C-121.707 -109.238 -121.439 -109.141 -121.172 -109.039C-121.376 -108.99 -121.579 -108.939 -121.782 -108.886ZM-512.361 517.562C-512.554 515.448 -512.383 513.337 -511.86 511.293C-510.795 512.053 -509.652 512.739 -508.438 513.342L-499.576 517.744L-504.962 526.893C-505.518 527.839 -505.997 528.813 -506.399 529.807C-509.804 526.48 -511.934 522.204 -512.361 517.562ZM-503.114 527.747L-497.757 518.647L147.886 839.287C153.646 842.145 160.316 842.84 166.668 841.23C173.021 839.628 178.29 835.916 181.511 830.779L547.794 246.147C550.194 242.314 551.249 237.983 550.843 233.628C550.161 226.296 545.46 219.782 538.251 216.207L-114.529 -107.989C-114.369 -107.99 -114.209 -107.989 -114.049 -107.987C-113.085 -107.66 -112.14 -107.275 -111.218 -106.831L567.371 219.649C574.316 222.991 578.849 229.169 579.496 236.184L579.497 236.192C579.871 240.188 578.924 244.177 576.77 247.726L209.874 852.208C203.779 862.253 189.637 866.006 178.353 860.584L-500.238 534.089C-501.886 533.297 -503.399 532.346 -504.755 531.261C-504.33 530.056 -503.782 528.88 -503.114 527.747ZM-505.342 533.256C-504.077 534.186 -502.701 535.015 -501.224 535.725L177.377 862.22C189.662 868.13 205.075 864.034 211.715 853.087L578.612 248.605C580.96 244.738 581.976 240.386 581.578 236.03C580.863 228.397 575.927 221.663 568.368 218.027L-107.079 -106.948C-105.808 -106.578 -104.563 -106.111 -103.356 -105.546L597.509 221.484C604.794 224.878 609.552 231.278 610.231 238.586L610.24 238.585C610.615 242.589 609.7 246.607 607.589 250.193L240.078 874.516C237.111 879.55 232.127 883.254 226.036 884.95C219.937 886.647 213.476 886.126 207.821 883.487L-493.052 556.466C-500.329 553.063 -505.086 546.671 -505.766 539.355C-505.958 537.303 -505.813 535.251 -505.342 533.256Z" fill="black" fill-opacity="0.05"/>
<rect x="-2" width="1445" height="806" fill="url(#paint0_linear_62_12)" fill-opacity="0.25"/>
</g>
<defs>
<linearGradient id="paint0_linear_62_12" x1="-42" y1="2.95264e-05" x2="603.417" y2="739.762" gradientUnits="userSpaceOnUse">
<stop stop-color="#C2DDF5"/>
<stop offset="1" stop-color="#4FA4E1"/>
</linearGradient>
<clipPath id="clip0_62_12">
<rect width="1440" height="806" fill="white"/>
</clipPath>
</defs>
</svg>
